<svg xmlns="http://www.w3.org/2000/svg" xmlns:xlink="http://www.w3.org/1999/xlink" viewBox="0 0 587.13 334.67"><defs><style>.cls-1{isolation:isolate;}.cls-2{fill:#fff;}.cls-3{fill:url(#Безымянный_градиент_5);}.cls-4{fill:#edd5d5;}.cls-101,.cls-102,.cls-36,.cls-4,.cls-58,.cls-59,.cls-72,.cls-75,.cls-92{mix-blend-mode:multiply;}.cls-5{fill:#6b6164;}.cls-6{fill:#0f0e1b;}.cls-7{fill:#f3f1ee;}.cls-8{fill:#e4dfd9;}.cls-9{fill:#2d2c37;}.cls-10{fill:#504f58;}.cls-11{fill:#c2c7d6;}.cls-12{fill:#a5acc2;}.cls-13{fill:#cfd9e7;}.cls-14{fill:#b5bbcd;}.cls-15{fill:#e1e7ef;}.cls-16{fill:#cdc6bc;}.cls-17{fill:#7572a4;}.cls-18{fill:#9b897f;}.cls-19{fill:#ff9a2e;}.cls-20{fill:#f9f1ec;}.cls-21{fill:#c9c3b9;}.cls-22{fill:#3f3436;}.cls-23{fill:#23222d;}.cls-24{fill:#393843;}.cls-25{fill:#c4c2bb;}.cls-26{fill:#b7b4a9;}.cls-27{fill:#d5d2c9;}.cls-28{fill:#cac6bc;}.cls-29{fill:#dddddb;}.cls-30{fill:#b0ac9e;}.cls-31{fill:#9d9783;}.cls-32{fill:#ded8d1;}.cls-33{fill:#b5aa9c;}.cls-34{fill:#9da1bf;}.cls-35{fill:#e06f2e;}.cls-36{fill:#f2f1f0;}.cls-37{fill:#573f3f;}.cls-38{fill:#ebe7e3;}.cls-39{fill:#554d4e;}.cls-40{fill:#856f63;}.cls-41{fill:#c99a6b;}.cls-42{fill:#ae835b;}.cls-43{fill:#d9af84;}.cls-44{fill:#ebcbab;}.cls-45{fill:#e8b687;}.cls-46{fill:#fcfbfa;}.cls-47{fill:#f0ece9;}.cls-48{fill:#493f41;}.cls-49{fill:#e07427;}.cls-50{fill:#d83b2e;}.cls-51{fill:#ff512e;}.cls-52{fill:#de4231;}.cls-53{fill:#fd6039;}.cls-54{fill:#de4037;}.cls-55{fill:#ededed;}.cls-56{fill:#fbf9ff;}.cls-57{fill:#e0e0e0;}.cls-58{fill:#eefaf9;}.cls-59{fill:#f5ec73;}.cls-60{fill:#b08480;}.cls-61{fill:#e9e5e1;}.cls-62{fill:#d9d3cc;}.cls-63{fill:#f5b53d;}.cls-64{fill:#898184;}.cls-65{fill:#fed8d0;}.cls-66{fill:url(#Безымянный_градиент_7);}.cls-67{fill:#fa9698;}.cls-68{fill:#fffbf0;}.cls-69{fill:#5c6467;}.cls-70{fill:#febfbf;}.cls-71{fill:#7282b5;}.cls-72{fill:#e8d0c8;}.cls-73{fill:#a0abcd;}.cls-74{fill:#fdf5da;}.cls-75{fill:#dedede;}.cls-76{fill:#ffc6be;}.cls-77{fill:url(#Безымянный_градиент_7-2);}.cls-78{fill:#754554;}.cls-79{fill:url(#Безымянный_градиент_8);}.cls-80{fill:#3b4549;}.cls-81{fill:#fff1ce;}.cls-82{fill:#ffc536;}.cls-83{fill:#fff98b;}.cls-84{fill:#ffe25b;}.cls-85{fill:#ddcfba;}.cls-86{fill:#fffae5;}.cls-87{fill:#87623f;}.cls-88{fill:#d1a986;}.cls-89{fill:#fab4a7;}.cls-90{fill:#feded7;}.cls-91{fill:#fef4dd;}.cls-92{fill:#fcf5e8;}.cls-93{fill:#725e6d;}.cls-94{fill:#504f60;}.cls-95{fill:url(#Безымянный_градиент_8-2);}.cls-96{fill:#9c9edb;}.cls-97{fill:#b0b2ff;}.cls-98{fill:#ff5e5e;}.cls-99{fill:url(#Безымянный_градиент_90);}.cls-100{fill:#ff6b68;}.cls-101{fill:#e79bf2;}.cls-102{fill:#fffbf7;}.cls-103{fill:url(#Безымянный_градиент_7-3);}.cls-104{fill:#ff6d67;}.cls-105{fill:url(#Безымянный_градиент_8-3);}.cls-106{fill:url(#Безымянный_градиент_7-4);}</style><linearGradient id="Безымянный_градиент_5" x1="495.62" y1="379.41" x2="328.74" y2="90.36" gradientUnits="userSpaceOnUse"><stop offset="0" stop-color="#ffde5c"/><stop offset="0.48" stop-color="#ffc970"/><stop offset="0.96" stop-color="#ffb980"/></linearGradient><linearGradient id="Безымянный_градиент_7" x1="8734.82" y1="239.2" x2="8739.85" y2="245.57" gradientTransform="matrix(-1, 0, 0, 1, 9271.78, 0)" gradientUnits="userSpaceOnUse"><stop offset="0.12" stop-color="#fcbbb5"/><stop offset="0.99" stop-color="#ffc6be"/></linearGradient><linearGradient id="Безымянный_градиент_7-2" x1="8723.77" y1="215.99" x2="8727.5" y2="220.71" xlink:href="#Безымянный_градиент_7"/><linearGradient id="Безымянный_градиент_8" x1="-5308.78" y1="1330.52" x2="-5307" y2="1330.52" gradientTransform="translate(6005.01 -214.94) rotate(9.59)" gradientUnits="userSpaceOnUse"><stop offset="0.12" stop-color="#fed3c9"/><stop offset="1" stop-color="#fff2ef"/></linearGradient><linearGradient id="Безымянный_градиент_8-2" x1="2491.99" y1="175.59" x2="2493.4" y2="175.59" gradientTransform="matrix(-1, 0.04, 0.04, 1, 2853.33, -51.15)" xlink:href="#Безымянный_градиент_8"/><linearGradient id="Безымянный_градиент_90" x1="2444.44" y1="196.62" x2="2443.12" y2="182.18" gradientTransform="matrix(-1, 0, 0, 1, 2756.83, 0)" gradientUnits="userSpaceOnUse"><stop offset="0.12" stop-color="#f7413e"/><stop offset="0.99" stop-color="#ff6d67"/></linearGradient><linearGradient id="Безымянный_градиент_7-3" x1="315.98" y1="196.26" x2="319.3" y2="200.46" gradientTransform="matrix(1, 0, 0, 1, 0, 0)" xlink:href="#Безымянный_градиент_7"/><linearGradient id="Безымянный_градиент_8-3" x1="2441.77" y1="192.73" x2="2445.15" y2="191.21" gradientTransform="matrix(-1, 0, 0, 1, 2756.83, 0)" xlink:href="#Безымянный_градиент_8"/><linearGradient id="Безымянный_градиент_7-4" x1="2443.46" y1="191.52" x2="2442.52" y2="192.72" gradientTransform="matrix(-1, 0, 0, 1, 2756.83, 0)" xlink:href="#Безымянный_градиент_7"/></defs><g class="cls-1"><g id="Слой_2" data-name="Слой 2"><g id="Layer_1" data-name="Layer 1"><rect class="cls-2" width="587.13" height="334.66" rx="19.15"/><path class="cls-3" d="M587.13,137.84V315.52A19.15,19.15,0,0,1,568,334.67H238.81c21.74-75.41,48.69-149.35,76.25-222.8,6.61-17.23,25-34.32,44.83-31.26C436.89,94.42,512.39,114.83,587.13,137.84Z"/><polygon class="cls-4" points="364.37 131.44 528.66 226.4 473.51 258.24 309.22 163.29 364.37 131.44"/><polygon class="cls-5" points="362.03 114.79 314.9 142 322.64 148.57 326.06 150.55 375.01 122.29 362.03 114.79"/><polygon class="cls-6" points="326.82 149.37 327.23 149.88 326.82 155.16 333.96 151 368.79 176.52 422.41 214.48 428.89 209.1 459.21 227.75 459.95 200.31 329.67 137.02 326.82 149.37"/><polygon class="cls-7" points="365.64 97.19 318.31 124.52 333.38 123.61 380.71 96.28 365.64 97.19"/><path class="cls-8" d="M365.64,97.19v19.94l8.52,4.91c2.23-4.65,7.37-5.28,13.36-1.82,8,4.64,9.14,11.32,13.66,24.59.36,1.06.89,3.27.89,3.27l67.68,39.07c0-.88,0-1.8,0-2.77,0-9.22,6.51-12.93,14.55-8.3s14.55,15.88,14.55,25.1c0,1,0,1.89-.05,2.73l21.58,12.46V139.71L388.49,63.57l-7.78,32.71Z"/><path class="cls-9" d="M375.46,130c0,7.15,5.05,15.87,11.29,19.46S398,150.14,398,143s-5-15.87-11.28-19.47S375.46,122.8,375.46,130Z"/><ellipse class="cls-9" cx="484.28" cy="192.78" rx="9.19" ry="15.91" transform="translate(-31.09 270.76) rotate(-30.31)"/><ellipse class="cls-10" cx="484.28" cy="192.78" rx="6.38" ry="11.06" transform="translate(-31.09 270.76) rotate(-30.31)"/><path class="cls-11" d="M477.17,188.68a15.67,15.67,0,0,0,7.11,12.26c3.92,2.26,7.1.45,7.1-4.06a15.65,15.65,0,0,0-7.1-12.25C480.35,182.36,477.17,184.18,477.17,188.68Z"/><ellipse class="cls-12" cx="484.28" cy="192.78" rx="5.2" ry="9.01" transform="translate(-31.09 270.76) rotate(-30.31)"/><path class="cls-13" d="M480.36,190.52a8.63,8.63,0,0,0,3.92,6.76c2.16,1.25,3.92.25,3.92-2.23a8.66,8.66,0,0,0-3.92-6.77C482.11,187,480.36,188,480.36,190.52Z"/><ellipse class="cls-10" cx="386.75" cy="136.47" rx="6.38" ry="11.06" transform="translate(-16.01 213.84) rotate(-30.31)"/><path class="cls-14" d="M379.64,132.37a15.67,15.67,0,0,0,7.11,12.26c3.92,2.26,7.1.45,7.1-4.06a15.65,15.65,0,0,0-7.1-12.25C382.82,126.05,379.64,127.87,379.64,132.37Z"/><path class="cls-13" d="M381.3,133.33a12,12,0,0,0,5.45,9.39c3,1.74,5.45.35,5.45-3.1a12,12,0,0,0-5.45-9.4C383.74,128.48,381.3,129.87,381.3,133.33Z"/><path class="cls-15" d="M383.77,134.76a6.54,6.54,0,0,0,3,5.12c1.64,1,3,.19,3-1.69a6.55,6.55,0,0,0-3-5.13C385.11,132.11,383.77,132.87,383.77,134.76Z"/><path class="cls-11" d="M385.13,135.54a3.59,3.59,0,0,0,1.62,2.79c.89.51,1.61.1,1.61-.93a3.55,3.55,0,0,0-1.61-2.78C385.86,134.1,385.13,134.52,385.13,135.54Z"/><polygon class="cls-14" points="361.81 121.52 370.11 128.29 373.92 130.49 374.8 122.41 361.81 114.92 361.81 121.52"/><polygon class="cls-16" points="422.89 157.34 422.89 96.54 395.74 80.86 395.74 119.67 404.67 146.82 422.89 157.34"/><polygon class="cls-9" points="387.9 71.34 394.02 74.88 394.02 109.52 384.95 104.28 382.39 97.15 387.9 71.34"/><polygon class="cls-17" points="393.2 108.11 393.2 75.34 388.53 72.64 383.26 97.54 385.45 103.63 393.2 108.11"/><polygon class="cls-18" points="402.07 146.15 424.16 158.91 424.16 160.83 402.07 148.08 402.07 146.15"/><polygon class="cls-10" points="368.08 107.26 371.32 109.13 371.32 105.41 368.08 103.54 368.08 107.26"/><polygon class="cls-19" points="368.36 107.1 371.05 108.65 371.05 105.57 368.36 104.01 368.36 107.1"/><path class="cls-20" d="M463.91,172.27a2.69,2.69,0,0,0,1.24,2.13c.68.39,1.23.08,1.23-.7a2.72,2.72,0,0,0-1.23-2.13C464.46,171.18,463.91,171.49,463.91,172.27Z"/><path class="cls-19" d="M464.1,172.38a2.33,2.33,0,0,0,1,1.81c.57.33,1,.06,1-.6a2.31,2.31,0,0,0-1-1.8C464.57,171.45,464.1,171.72,464.1,172.38Z"/><path class="cls-20" d="M427,150.94a2.72,2.72,0,0,0,1.23,2.13c.68.39,1.23.08,1.23-.7a2.72,2.72,0,0,0-1.23-2.13C427.52,149.85,427,150.16,427,150.94Z"/><path class="cls-19" d="M427.15,151.05a2.29,2.29,0,0,0,1.05,1.8c.58.34,1,.07,1-.59a2.28,2.28,0,0,0-1-1.8C427.62,150.12,427.15,150.39,427.15,151.05Z"/><path class="cls-9" d="M402.62,114.48l14.6,8.43c1.54.89,2.8-.06,2.8-2.12V100.92a6.74,6.74,0,0,0-2.8-5.35l-14.6-8.42c-1.55-.89-2.8,0-2.8,2.11v19.87A6.69,6.69,0,0,0,402.62,114.48Z"/><path class="cls-17" d="M419.2,120.47V100.3a4.76,4.76,0,0,0-2-3.79l-14.6-8.43c-1.1-.63-2,0-2,1.5v20.18a4.75,4.75,0,0,0,2,3.79l14.6,8.42C418.31,122.6,419.2,121.93,419.2,120.47Z"/><path class="cls-10" d="M389.86,140.12a1.34,1.34,0,0,1-1.38.85c-.25,0-.42.23-.34.58h0a1,1,0,0,0,.8.69,2,2,0,0,0,1.82-1.12,1,1,0,0,0-.24-1h0C390.25,139.85,390,139.89,389.86,140.12Z"/><path class="cls-10" d="M383.64,132.83A1.3,1.3,0,0,1,385,132c.26,0,.42-.23.34-.58h0a.94.94,0,0,0-.79-.7,2,2,0,0,0-1.82,1.13.92.92,0,0,0,.24,1h0C383.24,133.1,383.52,133.05,383.64,132.83Z"/><path class="cls-10" d="M385.13,139.11a6.22,6.22,0,0,1-1.42-2.4,1.25,1.25,0,0,0-.68-.78h0c-.26-.06-.38.3-.21.79a9.79,9.79,0,0,0,1.9,3.18c.35.39.71.44.78.18h0A1.22,1.22,0,0,0,385.13,139.11Z"/><path class="cls-10" d="M388.36,133.84a6.21,6.21,0,0,1,1.43,2.39,1.2,1.2,0,0,0,.68.79h0c.26,0,.38-.3.2-.79a9.81,9.81,0,0,0-1.89-3.19c-.35-.38-.72-.44-.79-.18h0A1.27,1.27,0,0,0,388.36,133.84Z"/><polygon class="cls-21" points="383.59 118.47 383.16 118.47 383.16 106.06 380.5 96.34 380.93 96.23 383.59 106.03 383.59 118.47"/><rect class="cls-21" x="373.63" y="92.61" width="0.44" height="16.41" transform="translate(257.7 470.19) rotate(-87.64)"/><polygon class="cls-22" points="314.9 148.6 320.72 156.04 326.06 159.13 326.06 156.57 326.06 150.55 322.64 148.57 314.9 142 314.9 148.6"/><path class="cls-23" d="M357.67,166.29c0-7.15-5.05-15.87-11.29-19.47-3.1-1.79-5.92-2-8-.82h0l-.05,0-7.12,4.12v5.52l16,22,6.69-3.88a5.82,5.82,0,0,0,.9-.52h0C356.6,172,357.67,169.58,357.67,166.29Z"/><path class="cls-24" d="M350.7,170.32c0,7.15-5.05,10-11.29,6.43s-11.29-12.31-11.29-19.46,5.06-10,11.29-6.44S350.7,163.17,350.7,170.32Z"/><ellipse class="cls-9" cx="339.14" cy="163.92" rx="8.84" ry="15.31" transform="matrix(0.86, -0.5, 0.5, 0.86, -36.37, 193.56)"/><path class="cls-10" d="M347,168.49c0,5-3.51,7-7.84,4.47s-7.84-8.56-7.84-13.53,3.51-7,7.84-4.47S347,163.52,347,168.49Z"/><path class="cls-25" d="M346.52,167.9c0,4.51-3.18,6.32-7.11,4.06a15.68,15.68,0,0,1-7.1-12.26c0-4.5,3.18-6.32,7.1-4A15.63,15.63,0,0,1,346.52,167.9Z"/><path class="cls-26" d="M345.63,167.39c0,3.94-2.79,5.53-6.22,3.55a13.74,13.74,0,0,1-6.22-10.73c0-3.94,2.79-5.52,6.22-3.54A13.7,13.7,0,0,1,345.63,167.39Z"/><path class="cls-27" d="M344.86,167c0,3.45-2.44,4.84-5.45,3.1a12,12,0,0,1-5.45-9.39c0-3.46,2.44-4.85,5.45-3.11A12,12,0,0,1,344.86,167Z"/><path class="cls-28" d="M342.21,166.09c0,2.07-1.45,2.9-3.25,1.86a7.17,7.17,0,0,1-3.26-5.62c0-2.06,1.46-2.89,3.26-1.86A7.18,7.18,0,0,1,342.21,166.09Z"/><path class="cls-10" d="M336.3,163.86a6.32,6.32,0,0,0,1.37,2.43,1.2,1.2,0,0,1,.34,1h0c-.08.26-.45.18-.79-.22a9.83,9.83,0,0,1-1.82-3.23c-.16-.49,0-.83.24-.76h0A1.26,1.26,0,0,1,336.3,163.86Z"/><path class="cls-29" d="M341.44,165.89c0,1.82-1.29,2.55-2.87,1.63a6.3,6.3,0,0,1-2.87-4.94c0-1.82,1.28-2.55,2.87-1.64A6.34,6.34,0,0,1,341.44,165.89Z"/><path class="cls-26" d="M340.13,165.13c0,1-.7,1.39-1.56.89a3.44,3.44,0,0,1-1.56-2.69c0-1,.7-1.38,1.56-.89A3.46,3.46,0,0,1,340.13,165.13Z"/><path class="cls-10" d="M342.52,163.75a6.16,6.16,0,0,0-1.37-2.44,1.19,1.19,0,0,1-.34-1h0c.08-.25.45-.18.79.22a9.76,9.76,0,0,1,1.82,3.23c.16.49,0,.83-.24.76h0A1.24,1.24,0,0,1,342.52,163.75Z"/><path class="cls-10" d="M341,168.3a1.31,1.31,0,0,0,1.42-.75c.14-.22.42-.24.68,0h0a.94.94,0,0,1,.21,1,2,2,0,0,1-1.9,1,1,1,0,0,1-.78-.72h0C340.59,168.5,340.76,168.29,341,168.3Z"/><path class="cls-10" d="M337.8,159.3a1.31,1.31,0,0,0-1.43.75c-.13.22-.41.25-.68,0h0a.91.91,0,0,1-.2-1,2,2,0,0,1,1.89-1,1,1,0,0,1,.79.72h0C338.24,159.1,338.06,159.31,337.8,159.3Z"/><path class="cls-23" d="M455.2,222.6c0-7.15-5.05-15.87-11.29-19.47-3.29-1.9-6.26-2-8.32-.6l-7.06,4.09,4.78,7.79A26.55,26.55,0,0,0,441,226.88l4.2,6.85,6.2-3.61a4.85,4.85,0,0,0,1.12-.66h0C454.18,228.18,455.2,225.82,455.2,222.6Z"/><path class="cls-24" d="M448.23,226.63c0,7.15-5.05,10-11.29,6.43s-11.28-12.31-11.28-19.47,5-10,11.28-6.43S448.23,219.47,448.23,226.63Z"/><ellipse class="cls-9" cx="436.24" cy="220.23" rx="8.84" ry="15.31" transform="translate(-51.51 250.27) rotate(-30.31)"/><ellipse class="cls-10" cx="436.73" cy="220.27" rx="6.38" ry="11.06" transform="translate(-51.47 250.53) rotate(-30.31)"/><path class="cls-25" d="M444.05,224.21c0,4.51-3.18,6.32-7.11,4a15.65,15.65,0,0,1-7.1-12.25c0-4.5,3.18-6.32,7.1-4A15.63,15.63,0,0,1,444.05,224.21Z"/><path class="cls-30" d="M443.33,223.8c0,4-2.86,5.68-6.39,3.64a14.06,14.06,0,0,1-6.39-11c0-4,2.86-5.68,6.39-3.64a7.1,7.1,0,0,1,.95.63,14.6,14.6,0,0,1,5.37,9.21A9.57,9.57,0,0,1,443.33,223.8Z"/><path class="cls-26" d="M439.25,225.8a13.34,13.34,0,0,1-6.05-10.44,4.68,4.68,0,0,1,1.19-3.45c-2.26-.17-3.84,1.5-3.84,4.51a14.06,14.06,0,0,0,6.39,11c2.57,1.49,4.79,1,5.8-.9A4.87,4.87,0,0,1,439.25,225.8Z"/><path class="cls-31" d="M443.26,222.62c-.67,1-1.95,1.16-3.42.31a8.64,8.64,0,0,1-3.92-6.76c0-1.67.8-2.67,2-2.76A14.6,14.6,0,0,1,443.26,222.62Z"/><polygon class="cls-31" points="436.94 213.74 434 215.44 439.8 224.84 442.69 223.17 440.71 218.44 436.94 213.74"/><path class="cls-27" d="M440.86,222.37c0,2.49-1.75,3.49-3.92,2.24a8.66,8.66,0,0,1-3.92-6.76c0-2.49,1.76-3.49,3.92-2.24A8.63,8.63,0,0,1,440.86,222.37Z"/><path class="cls-32" d="M318.31,124.52v19.94l8.51,4.91c2.23-4.65,7.37-5.28,13.37-1.82,8,4.64,9.14,11.31,13.66,24.58.36,1.07.88,3.27.88,3.27l67.68,39.08c0-.88,0-1.81,0-2.77,0-9.22,6.52-12.93,14.55-8.3s14.55,15.88,14.55,25.1c0,1,0,1.89-.05,2.73L473,243.7V167L341.15,90.9l-7.77,32.71Z"/><path class="cls-33" d="M469.44,230.55c0,.78-.55,1.1-1.23.71a2.74,2.74,0,0,1-1.23-2.13c0-.78.55-1.1,1.23-.7A2.7,2.7,0,0,1,469.44,230.55Z"/><path class="cls-34" d="M469.58,229.93c0,.78-.56,1.1-1.24.7a2.7,2.7,0,0,1-1.23-2.12c0-.78.55-1.1,1.23-.71A2.75,2.75,0,0,1,469.58,229.93Z"/><path class="cls-20" d="M469.31,230.05c0,.78-.55,1.09-1.24.7a2.7,2.7,0,0,1-1.23-2.13c0-.78.55-1.09,1.23-.7A2.7,2.7,0,0,1,469.31,230.05Z"/><path class="cls-35" d="M469.12,229.94c0,.66-.47.93-1.05.6a2.33,2.33,0,0,1-1-1.81c0-.66.47-.93,1-.59A2.29,2.29,0,0,1,469.12,229.94Z"/><path class="cls-33" d="M419.18,201.53c0,.78-.56,1.1-1.24.7a2.7,2.7,0,0,1-1.23-2.12c0-.78.55-1.1,1.23-.7A2.71,2.71,0,0,1,419.18,201.53Z"/><path class="cls-34" d="M419.31,200.91c0,.78-.55,1.09-1.23.7a2.7,2.7,0,0,1-1.23-2.12c0-.78.55-1.1,1.23-.71A2.74,2.74,0,0,1,419.31,200.91Z"/><path class="cls-20" d="M419,201c0,.78-.55,1.09-1.23.7a2.72,2.72,0,0,1-1.23-2.13c0-.78.55-1.09,1.23-.7A2.72,2.72,0,0,1,419,201Z"/><path class="cls-35" d="M418.85,200.92c0,.66-.46.93-1,.6a2.33,2.33,0,0,1-1.05-1.81c0-.66.47-.93,1.05-.59A2.28,2.28,0,0,1,418.85,200.92Z"/><path class="cls-33" d="M382.23,180.2c0,.78-.55,1.1-1.23.7a2.7,2.7,0,0,1-1.23-2.12c0-.78.55-1.1,1.23-.7A2.7,2.7,0,0,1,382.23,180.2Z"/><path class="cls-34" d="M382.36,179.58c0,.78-.55,1.09-1.23.7a2.7,2.7,0,0,1-1.23-2.12c0-.79.55-1.1,1.23-.71A2.74,2.74,0,0,1,382.36,179.58Z"/><path class="cls-20" d="M382.1,179.7c0,.78-.56,1.09-1.24.7a2.72,2.72,0,0,1-1.23-2.13c0-.78.55-1.09,1.23-.7A2.73,2.73,0,0,1,382.1,179.7Z"/><path class="cls-35" d="M381.91,179.59c0,.66-.47.93-1.05.59a2.31,2.31,0,0,1-1-1.8c0-.66.47-.93,1-.6A2.33,2.33,0,0,1,381.91,179.59Z"/><polygon class="cls-7" points="342.25 89.14 472.41 164.31 473.02 167.04 341.15 90.9 342.25 89.14"/><polygon class="cls-7" points="519.75 136.98 472.41 164.31 473.02 167.04 520.36 139.71 519.75 136.98"/><polygon class="cls-16" points="375.56 184.67 375.56 123.87 348.41 108.19 348.41 146.99 357.33 174.15 375.56 184.67"/><polygon class="cls-36" points="375.56 183.04 374.34 182.33 374.34 124.52 349.82 110.4 349.82 109.01 375.56 123.87 375.56 183.04"/><polygon class="cls-9" points="340.56 98.67 346.68 102.21 346.68 136.84 337.62 131.61 335.06 124.48 340.56 98.67"/><polygon class="cls-37" points="345.87 102.67 345.87 135.44 338.11 130.96 335.92 124.87 341.19 99.97 341.6 100.21 345.87 102.67"/><polygon class="cls-16" points="465.09 165.47 469.31 167.91 469.31 166.03 465.09 163.6 465.09 165.47"/><polygon class="cls-35" points="465.46 165.36 468.93 167.36 468.93 165.97 465.46 163.97 465.46 165.36"/><polygon class="cls-16" points="412.55 135.14 416.76 137.57 416.76 135.7 412.55 133.26 412.55 135.14"/><polygon class="cls-35" points="412.92 135.02 416.39 137.02 416.39 135.64 412.92 133.64 412.92 135.02"/><polygon class="cls-16" points="346.3 96.89 350.51 99.32 350.51 97.45 346.3 95.02 346.3 96.89"/><polygon class="cls-35" points="346.67 96.77 350.14 98.77 350.14 97.39 346.67 95.39 346.67 96.77"/><path class="cls-9" d="M355.28,141.81l14.6,8.43c1.55.89,2.8-.06,2.8-2.12V128.25a6.71,6.71,0,0,0-2.8-5.35l-14.6-8.42c-1.54-.9-2.79,0-2.79,2.11v19.87A6.71,6.71,0,0,0,355.28,141.81Z"/><path class="cls-37" d="M371.86,147.8V127.63a4.73,4.73,0,0,0-2-3.79l-14.6-8.43c-1.09-.63-2,0-2,1.5v20.18a4.74,4.74,0,0,0,2,3.78l14.6,8.43C371,149.93,371.86,149.26,371.86,147.8Z"/><path class="cls-9" d="M365.38,170.42l4.5,2.59c1.55.9,2.8,0,2.8-2.11V158.25a6.68,6.68,0,0,0-2.8-5.35l-4.5-2.6c-1.54-.89-2.8,0-2.8,2.12v12.65A6.74,6.74,0,0,0,365.38,170.42Z"/><path class="cls-37" d="M371.86,170.58v-13a4.75,4.75,0,0,0-2-3.79l-4.5-2.59c-1.09-.64-2,0-2,1.5v12.95a4.76,4.76,0,0,0,2,3.79l4.5,2.6C371,172.71,371.86,172,371.86,170.58Z"/><polygon class="cls-21" points="336.26 145.8 335.82 145.8 335.82 133.39 333.17 123.67 333.59 123.56 336.26 133.36 336.26 145.8"/><rect class="cls-21" x="326.29" y="119.94" width="0.44" height="16.42" transform="matrix(0.04, -1, 1, 0.04, 185.01, 449.1)"/><polygon class="cls-38" points="473.02 243.7 520.36 216.37 520.36 139.71 473.02 167.04 473.02 243.7"/><polygon class="cls-39" points="473.02 243.7 520.36 216.37 520.36 209.8 473.02 237.13 473.02 243.7"/><polygon class="cls-18" points="514.67 156.38 514.67 218.27 478.71 239.03 478.71 177.14 514.67 156.38"/><polygon class="cls-40" points="514.67 156.38 514.67 212.52 478.71 191.76 478.71 177.14 514.67 156.38"/><polygon class="cls-41" points="489.59 209.81 499.72 203.96 499.72 192.33 489.59 198.18 489.59 209.81"/><polygon class="cls-42" points="489.59 209.81 479.46 203.96 479.46 192.33 489.59 198.18 489.59 209.81"/><polygon class="cls-42" points="489.59 198.18 479.46 192.33 489.59 186.48 499.72 192.33 489.59 198.18"/><polygon class="cls-43" points="494.16 200.14 495.79 199.2 495.79 194.61 494.16 195.55 494.16 200.14"/><polygon class="cls-44" points="494.16 195.55 484.03 189.7 485.65 188.76 495.79 194.61 494.16 195.55"/><polygon class="cls-41" points="489.59 197.8 499.72 191.95 499.72 180.32 489.59 186.17 489.59 197.8"/><polygon class="cls-42" points="489.59 197.8 479.46 191.95 479.46 180.32 489.59 186.17 489.59 197.8"/><polygon class="cls-45" points="489.59 186.17 479.46 180.32 489.59 174.47 499.72 180.32 489.59 186.17"/><polygon class="cls-43" points="494.16 188.13 495.79 187.19 495.79 182.59 494.16 183.53 494.16 188.13"/><polygon class="cls-44" points="494.16 183.53 484.03 177.69 485.65 176.75 495.79 182.59 494.16 183.53"/><polygon class="cls-41" points="501.11 216.46 511.24 210.61 511.24 198.98 501.11 204.83 501.11 216.46"/><polygon class="cls-42" points="501.11 216.46 490.98 210.61 490.98 198.98 501.11 204.83 501.11 216.46"/><polygon class="cls-45" points="501.11 204.83 490.98 198.98 501.11 193.13 511.24 198.98 501.11 204.83"/><polygon class="cls-43" points="505.67 206.79 507.3 205.85 507.3 201.25 505.67 202.19 505.67 206.79"/><polygon class="cls-44" points="505.67 202.19 495.54 196.34 497.17 195.41 507.3 201.25 505.67 202.19"/><polygon class="cls-46" points="478.71 197.04 514.67 176.28 514.67 156.38 478.71 177.14 478.71 197.04"/><polygon class="cls-47" points="478.71 191.98 514.67 171.22 514.67 170.59 478.71 191.34 478.71 191.98"/><polygon class="cls-47" points="478.71 187.33 514.67 166.57 514.67 165.94 478.71 186.69 478.71 187.33"/><polygon class="cls-47" points="478.71 182.68 514.67 161.92 514.67 161.29 478.71 182.04 478.71 182.68"/><polygon class="cls-47" points="478.71 178.03 514.67 157.27 514.67 156.64 478.71 177.4 478.71 178.03"/><polygon class="cls-5" points="514.67 218.27 513.15 217.4 478.71 237.28 478.71 239.03 514.67 218.27"/><polygon class="cls-5" points="480.76 246.78 473.02 242.31 520.36 214.99 528.1 219.45 480.76 246.78"/><polygon class="cls-48" points="480.76 246.78 473.02 242.31 473.02 243.7 480.76 248.17 480.76 246.78"/><polygon class="cls-39" points="528.1 219.45 480.76 246.78 480.76 248.17 528.1 220.84 528.1 219.45"/><polygon class="cls-46" points="388.59 61.34 519.75 136.98 472.41 164.31 342.25 89.14 388.59 61.34"/><polygon class="cls-16" points="469.8 218.72 375.62 164.34 375.62 161.61 376.83 160.23 469.8 215.99 471.01 217.34 469.8 218.72"/><polygon class="cls-5" points="470.12 215.12 375.94 160.74 376.83 160.23 471.01 214.6 470.12 215.12"/><polygon class="cls-39" points="470.12 215.12 470.12 217.85 471.01 217.34 471.01 214.6 470.12 215.12"/><polygon class="cls-22" points="470.12 217.85 375.94 163.47 375.94 160.74 470.12 215.12 470.12 217.85"/><polygon class="cls-18" points="358.75 173.33 349.82 146.18 349.82 109.01 348.41 108.19 348.41 146.99 357.33 174.15 375.56 184.67 375.56 183.04 358.75 173.33"/><polygon class="cls-7" points="358.75 173.33 357.33 174.15 375.56 184.67 375.56 183.04 358.75 173.33"/><polygon class="cls-22" points="373.33 188.79 351.24 176.03 351.24 177.42 373.33 190.18 373.33 188.79"/><polygon class="cls-48" points="373.33 188.79 376.83 186.78 376.83 188.16 373.33 190.18 373.33 188.79"/><polygon class="cls-5" points="373.33 188.79 376.83 186.78 354.73 174.02 351.24 176.03 373.33 188.79"/><polygon class="cls-48" points="326.06 159.13 327.23 158.59 327.23 149.88 326.06 150.55 326.06 159.13"/><polygon class="cls-32" points="514.67 218.27 513.15 217.4 513.15 157.26 514.67 156.38 514.67 218.27"/><polygon class="cls-33" points="322.55 137.03 320.39 135.78 320.39 133.29 321.02 131.34 323.71 135.98 322.55 137.03"/><polygon class="cls-10" points="323.99 136.46 320.74 134.59 320.74 130.87 323.99 132.74 323.99 136.46"/><polygon class="cls-19" points="323.71 135.98 320.15 132.45 321.02 131.34 323.71 132.9 323.71 135.98"/><polygon class="cls-35" points="322.31 136.18 320.15 134.93 320.15 132.45 322.31 133.7 322.31 136.18"/><polygon class="cls-49" points="323.71 132.9 322.31 133.7 322.31 136.18 323.71 135.98 323.71 132.9"/><path class="cls-10" d="M469.68,223.21c0,1.15-.81,1.62-1.81,1a4,4,0,0,1-1.81-3.13c0-1.15.81-1.61,1.81-1A4,4,0,0,1,469.68,223.21Z"/><path class="cls-50" d="M469.31,223c0,.91-.65,1.27-1.44.82a3.19,3.19,0,0,1-1.44-2.48c0-.91.65-1.28,1.44-.82A3.19,3.19,0,0,1,469.31,223Z"/><path class="cls-50" d="M466.75,220.49a5.15,5.15,0,0,0-.79,1c-.13.33,1.54,2.67,1.54,2.67a3.71,3.71,0,0,0,1.37-.23C469.39,223.68,466.75,220.49,466.75,220.49Z"/><path class="cls-51" d="M468.07,223.36c0,.71-.51,1-1.13.64a2.5,2.5,0,0,1-1.13-1.95c0-.71.51-1,1.13-.64A2.5,2.5,0,0,1,468.07,223.36Z"/><polygon class="cls-16" points="511.64 218.27 485.04 218.27 478.71 222.17 478.71 237.28 511.64 218.27"/><polygon class="cls-38" points="357.75 82.43 355.67 81.24 357.31 80.26 358.93 82.43 357.75 82.43"/><polygon class="cls-49" points="358.93 82.43 360.58 81.45 360.58 80.64 358.93 81.62 358.93 82.43"/><polygon class="cls-19" points="358.93 81.62 356.85 80.43 358.5 79.45 360.58 80.64 358.93 81.62"/><polygon class="cls-35" points="358.93 81.62 356.85 80.43 356.85 81.24 358.93 82.43 358.93 81.62"/><polygon class="cls-38" points="365.98 77.53 363.9 76.34 365.54 75.36 367.16 77.53 365.98 77.53"/><polygon class="cls-49" points="367.16 77.53 368.81 76.56 368.81 75.74 367.16 76.72 367.16 77.53"/><polygon class="cls-19" points="367.16 76.72 365.08 75.53 366.73 74.55 368.81 75.74 367.16 76.72"/><polygon class="cls-35" points="367.16 76.72 365.08 75.53 365.08 76.34 367.16 77.53 367.16 76.72"/><polygon class="cls-38" points="374.21 72.64 372.13 71.44 373.78 70.46 375.4 72.64 374.21 72.64"/><polygon class="cls-49" points="375.4 72.64 377.04 71.66 377.04 70.84 375.4 71.82 375.4 72.64"/><polygon class="cls-19" points="375.4 71.82 373.31 70.63 374.96 69.65 377.04 70.84 375.4 71.82"/><polygon class="cls-35" points="375.4 71.82 373.31 70.63 373.31 71.44 375.4 72.64 375.4 71.82"/><polygon class="cls-16" points="492.06 160.71 498.53 156.97 498.53 155.02 492.56 157.36 492.06 158.75 492.06 160.71"/><polygon class="cls-49" points="493.36 159.78 499.84 156.04 499.84 154.08 493.36 157.82 493.36 159.78"/><polygon class="cls-19" points="493.36 157.82 492.56 157.36 499.04 153.62 499.84 154.08 493.36 157.82"/><polygon class="cls-35" points="493.36 157.82 492.56 157.36 492.56 159.31 493.36 159.78 493.36 157.82"/><polygon class="cls-16" points="515.03 208.5 518.57 206.54 518.57 201.6 515.7 202.09 515.03 203.56 515.03 208.5"/><polygon class="cls-16" points="515.03 201.95 518.57 200 518.57 195.06 515.7 195.55 515.03 197.01 515.03 201.95"/><polygon class="cls-16" points="515.03 195.41 518.57 193.46 518.57 188.51 515.7 189.01 515.03 190.47 515.03 195.41"/><polygon class="cls-16" points="515.03 188.87 518.57 186.91 518.57 181.97 515.7 182.46 515.03 183.93 515.03 188.87"/><polygon class="cls-52" points="516.5 207.5 520.04 205.54 520.04 200.6 516.5 202.56 516.5 207.5"/><polygon class="cls-53" points="516.5 202.56 515.7 202.09 519.24 200.13 520.04 200.6 516.5 202.56"/><polygon class="cls-54" points="516.5 202.56 515.7 202.09 515.7 207.03 516.5 207.5 516.5 202.56"/><polygon class="cls-49" points="516.5 200.95 520.04 199 520.04 194.06 516.5 196.01 516.5 200.95"/><polygon class="cls-19" points="516.5 196.01 515.7 195.55 519.24 193.59 520.04 194.06 516.5 196.01"/><polygon class="cls-35" points="516.5 196.01 515.7 195.55 515.7 200.49 516.5 200.95 516.5 196.01"/><polygon class="cls-55" points="516.5 194.41 520.04 192.45 520.04 187.51 516.5 189.47 516.5 194.41"/><polygon class="cls-56" points="516.5 189.47 515.7 189.01 519.24 187.05 520.04 187.51 516.5 189.47"/><polygon class="cls-57" points="516.5 189.47 515.7 189.01 515.7 193.95 516.5 194.41 516.5 189.47"/><polygon class="cls-52" points="516.5 187.87 520.04 185.91 520.04 180.97 516.5 182.93 516.5 187.87"/><polygon class="cls-53" points="516.5 182.93 515.7 182.46 519.24 180.51 520.04 180.97 516.5 182.93"/><polygon class="cls-54" points="516.5 182.93 515.7 182.46 515.7 187.4 516.5 187.87 516.5 182.93"/><polygon class="cls-16" points="473.65 232.29 477.2 230.34 477.2 225.4 474.32 225.89 473.65 227.35 473.65 232.29"/><polygon class="cls-16" points="473.65 225.75 477.2 223.79 477.2 218.85 474.32 219.34 473.65 220.81 473.65 225.75"/><polygon class="cls-16" points="473.65 219.21 477.2 217.25 477.2 212.31 474.32 212.8 473.65 214.27 473.65 219.21"/><polygon class="cls-16" points="473.65 212.66 477.2 210.71 477.2 205.77 474.32 206.26 473.65 207.72 473.65 212.66"/><polygon class="cls-52" points="475.13 231.29 478.67 229.34 478.67 224.4 475.13 226.35 475.13 231.29"/><polygon class="cls-53" points="475.13 226.35 474.32 225.89 477.87 223.93 478.67 224.4 475.13 226.35"/><polygon class="cls-54" points="475.13 226.35 474.32 225.89 474.32 230.83 475.13 231.29 475.13 226.35"/><polygon class="cls-49" points="475.13 224.75 478.67 222.79 478.67 217.85 475.13 219.81 475.13 224.75"/><polygon class="cls-19" points="475.13 219.81 474.32 219.34 477.87 217.39 478.67 217.85 475.13 219.81"/><polygon class="cls-35" points="475.13 219.81 474.32 219.34 474.32 224.28 475.13 224.75 475.13 219.81"/><polygon class="cls-55" points="475.13 218.21 478.67 216.25 478.67 211.31 475.13 213.27 475.13 218.21"/><polygon class="cls-56" points="475.13 213.27 474.32 212.8 477.87 210.85 478.67 211.31 475.13 213.27"/><polygon class="cls-57" points="475.13 213.27 474.32 212.8 474.32 217.74 475.13 218.21 475.13 213.27"/><polygon class="cls-52" points="475.13 211.66 478.67 209.71 478.67 204.77 475.13 206.72 475.13 211.66"/><polygon class="cls-53" points="475.13 206.72 474.32 206.26 477.87 204.3 478.67 204.77 475.13 206.72"/><polygon class="cls-54" points="475.13 206.72 474.32 206.26 474.32 211.2 475.13 211.66 475.13 206.72"/><polygon class="cls-58" points="515.95 207.18 519.5 205.22 519.5 200.28 515.95 202.24 515.95 207.18"/><polygon class="cls-59" points="515.95 200.64 519.5 198.68 519.5 193.74 515.95 195.7 515.95 200.64"/><polygon class="cls-58" points="515.95 194.1 519.5 192.14 519.5 187.2 515.95 189.16 515.95 194.1"/><polygon class="cls-58" points="515.95 187.55 519.5 185.6 519.5 180.66 515.95 182.61 515.95 187.55"/><polygon class="cls-58" points="474.58 230.98 478.12 229.02 478.12 224.08 474.58 226.04 474.58 230.98"/><polygon class="cls-59" points="474.58 224.44 478.12 222.48 478.12 217.54 474.58 219.5 474.58 224.44"/><polygon class="cls-58" points="474.58 217.89 478.12 215.94 478.12 211 474.58 212.95 474.58 217.89"/><polygon class="cls-58" points="474.58 211.35 478.12 209.39 478.12 204.45 474.58 206.41 474.58 211.35"/><polygon class="cls-60" points="345.87 102.67 345.87 115.3 337.54 120.11 341.6 100.21 345.87 102.67"/><polygon class="cls-48" points="513.96 177.64 513.96 182.91 478.71 203.29 478.71 197.97 513.96 177.64"/><polygon class="cls-5" points="513.96 177.64 478.71 197.97 478.71 197.04 513.15 177.17 513.96 177.64"/><polygon class="cls-38" points="474.46 162.53 348.18 89.52 349.06 89.01 474.77 162.53 474.46 162.53"/><polygon class="cls-46" points="474.77 162.24 348.48 89.23 349.37 88.72 475.65 161.73 474.77 162.24"/><polygon class="cls-38" points="474.77 162.24 474.77 162.53 475.65 162.02 475.65 161.73 474.77 162.24"/><polygon class="cls-16" points="474.77 162.53 348.48 89.52 348.48 89.23 474.77 162.24 474.77 162.53"/><polygon class="cls-38" points="480.27 159.18 353.99 86.16 354.87 85.65 480.58 159.18 480.27 159.18"/><polygon class="cls-46" points="480.58 158.89 354.29 85.87 355.18 85.36 481.46 158.38 480.58 158.89"/><polygon class="cls-38" points="480.58 158.89 480.58 159.18 481.46 158.67 481.46 158.38 480.58 158.89"/><polygon class="cls-16" points="480.58 159.18 354.29 86.16 354.29 85.87 480.58 158.89 480.58 159.18"/><polygon class="cls-38" points="486.08 155.82 359.8 82.81 360.68 82.3 486.39 155.82 486.08 155.82"/><polygon class="cls-46" points="486.39 155.53 360.1 82.52 360.99 82.01 487.27 155.02 486.39 155.53"/><polygon class="cls-38" points="486.39 155.53 486.39 155.82 487.27 155.31 487.27 155.02 486.39 155.53"/><polygon class="cls-16" points="486.39 155.82 360.1 82.81 360.1 82.52 486.39 155.53 486.39 155.82"/><polygon class="cls-38" points="491.89 152.47 365.61 79.45 366.49 78.94 492.2 152.47 491.89 152.47"/><polygon class="cls-46" points="492.2 152.18 365.92 79.16 366.8 78.65 493.09 151.67 492.2 152.18"/><polygon class="cls-38" points="492.2 152.18 492.2 152.47 493.09 151.96 493.09 151.67 492.2 152.18"/><polygon class="cls-16" points="492.2 152.47 365.92 79.45 365.92 79.16 492.2 152.18 492.2 152.47"/><polygon class="cls-38" points="497.71 149.11 371.42 76.1 372.31 75.58 498.01 149.11 497.71 149.11"/><polygon class="cls-46" points="498.01 148.82 371.73 75.81 372.61 75.3 498.9 148.31 498.01 148.82"/><polygon class="cls-38" points="498.01 148.82 498.01 149.11 498.9 148.6 498.9 148.31 498.01 148.82"/><polygon class="cls-16" points="498.01 149.11 371.73 76.1 371.73 75.81 498.01 148.82 498.01 149.11"/><polygon class="cls-38" points="503.52 145.76 377.23 72.74 378.12 72.23 503.82 145.76 503.52 145.76"/><polygon class="cls-46" points="503.82 145.47 377.54 72.45 378.42 71.94 504.71 144.96 503.82 145.47"/><polygon class="cls-38" points="503.82 145.47 503.82 145.76 504.71 145.25 504.71 144.96 503.82 145.47"/><polygon class="cls-16" points="503.82 145.76 377.54 72.74 377.54 72.45 503.82 145.47 503.82 145.76"/><polygon class="cls-38" points="509.33 142.4 383.04 69.39 383.93 68.88 509.64 142.4 509.33 142.4"/><polygon class="cls-46" points="509.64 142.11 383.35 69.09 384.24 68.58 510.52 141.6 509.64 142.11"/><polygon class="cls-38" points="509.64 142.11 509.64 142.4 510.52 141.89 510.52 141.6 509.64 142.11"/><polygon class="cls-16" points="509.64 142.4 383.35 69.39 383.35 69.09 509.64 142.11 509.64 142.4"/><polygon class="cls-38" points="515.14 139.04 388.86 66.03 389.74 65.52 515.45 139.04 515.14 139.04"/><polygon class="cls-46" points="515.45 138.75 389.16 65.74 390.05 65.23 516.33 138.25 515.45 138.75"/><polygon class="cls-38" points="515.45 138.75 515.45 139.04 516.33 138.53 516.33 138.25 515.45 138.75"/><polygon class="cls-16" points="515.45 139.04 389.16 66.03 389.16 65.74 515.45 138.75 515.45 139.04"/><path class="cls-61" d="M466.3,205.26a4.75,4.75,0,0,1-2.35-.69l-26.56-15.33c-2.9-1.68-5.18-6-5.18-9.83V164.26c0-2.17.77-3.86,2.1-4.63a3.93,3.93,0,0,1,4,.25l26.55,15.34c2.91,1.67,5.19,6,5.19,9.82v15.15c0,2.17-.77,3.86-2.1,4.63A3.27,3.27,0,0,1,466.3,205.26Zm-1.41-2.32a2.2,2.2,0,0,0,2.15.25c.72-.42,1.16-1.54,1.16-3V185c0-3.11-1.95-6.87-4.25-8.19l-26.56-15.34a2.2,2.2,0,0,0-2.14-.24c-.72.41-1.16,1.53-1.16,3v15.15c0,3.12,2,6.87,4.25,8.2Z"/><path class="cls-62" d="M466.28,204.4a4.6,4.6,0,0,1-2.34-.7l-26.56-15.33c-2.91-1.68-5.19-6-5.19-9.82V163.4c0-2.18.77-3.86,2.1-4.63a3.93,3.93,0,0,1,4,.25l26.56,15.33c2.9,1.68,5.18,6,5.18,9.82v15.15c0,2.18-.76,3.86-2.1,4.63A3.28,3.28,0,0,1,466.28,204.4ZM436,160.21a1.41,1.41,0,0,0-.74.19c-.73.42-1.16,1.54-1.16,3v15.15c0,3.11,1.94,6.86,4.24,8.19l26.56,15.33a2.18,2.18,0,0,0,2.14.25c.73-.42,1.16-1.54,1.16-3V184.17c0-3.11-1.94-6.86-4.24-8.19l-26.56-15.33A2.89,2.89,0,0,0,436,160.21Z"/><path class="cls-61" d="M425,181.41a4.73,4.73,0,0,1-2.34-.7l-26.56-15.33c-2.91-1.68-5.18-6-5.18-9.82V140.4c0-2.17.76-3.85,2.1-4.63a3.94,3.94,0,0,1,4,.25l26.56,15.34c2.91,1.68,5.19,6,5.19,9.82v15.15c0,2.17-.77,3.86-2.11,4.63A3.28,3.28,0,0,1,425,181.41Zm-30.3-44.19a1.43,1.43,0,0,0-.74.19c-.73.42-1.16,1.54-1.16,3v15.16c0,3.11,1.94,6.86,4.24,8.19l26.56,15.33a2.18,2.18,0,0,0,2.14.25c.73-.42,1.16-1.54,1.16-3V161.18c0-3.11-1.94-6.86-4.24-8.19l-26.56-15.33A2.86,2.86,0,0,0,394.67,137.22Z"/><path class="cls-62" d="M425,180.54a4.75,4.75,0,0,1-2.35-.69l-26.56-15.34c-2.9-1.68-5.18-6-5.18-9.82V139.54c0-2.17.77-3.86,2.1-4.63a3.93,3.93,0,0,1,4,.25l26.55,15.33c2.91,1.68,5.19,6,5.19,9.82v15.16c0,2.17-.77,3.85-2.1,4.62A3.31,3.31,0,0,1,425,180.54Zm-1.41-2.32a2.22,2.22,0,0,0,2.15.24c.72-.42,1.16-1.54,1.16-3V160.31c0-3.11-1.95-6.86-4.25-8.19l-26.56-15.33a2.18,2.18,0,0,0-2.14-.25c-.72.42-1.16,1.54-1.16,3v15.15c0,3.11,1.95,6.86,4.25,8.19Z"/><path class="cls-54" d="M400.38,146.56v5.52a1.36,1.36,0,0,0,2,1.18l4.81-2.74a1.36,1.36,0,0,0,0-2.35l-4.81-2.78A1.35,1.35,0,0,0,400.38,146.56Z"/><path class="cls-54" d="M414.64,166.47V161a1.35,1.35,0,0,0-2-1.17l-4.81,2.74a1.36,1.36,0,0,0,0,2.35l4.81,2.78A1.35,1.35,0,0,0,414.64,166.47Z"/><path class="cls-63" d="M401.06,161l3.81,2.2a1.35,1.35,0,0,0,1.85-1.85l-3.81-6.59a1.36,1.36,0,0,0-2.53.68v4.38A1.37,1.37,0,0,0,401.06,161Z"/><path class="cls-63" d="M414,152.06l-3.82-2.2a1.35,1.35,0,0,0-1.85,1.85l3.82,6.58a1.35,1.35,0,0,0,2.52-.68v-4.37A1.37,1.37,0,0,0,414,152.06Z"/><path class="cls-48" d="M425,163c0,2-1.24,2.56-3.16,1.44L419.37,163v-6.54l2.54,1.47A6,6,0,0,1,425,163Zm-1.92-1.09a2.66,2.66,0,0,0-1.21-2.3l-.62-.36v3.18l.71.41C422.64,163.23,423.08,162.87,423.08,161.91Z"/><path class="cls-48" d="M430.35,162.82v1.64l-2.93-1.69v.8l2.66,1.54v1.64l-2.66-1.54V166l3,1.73v1.64l-4.89-2.82V160Z"/><path class="cls-48" d="M433,164.37v4.73l2.36,1.37v1.8l-4.25-2.46v-6.53Z"/><path class="cls-48" d="M437.77,167.11v6.53l-1.89-1.09V166Z"/><path class="cls-48" d="M440.15,168.48l1.17,5,1.17-3.61,1.93,1.11-2.18,5.27-1.95-1.12-2.16-7.78Z"/><path class="cls-48" d="M449.6,173.94v1.64l-2.93-1.69v.8l2.66,1.54v1.64l-2.66-1.54v.81l3,1.73v1.65l-4.89-2.83v-6.53Z"/><path class="cls-48" d="M453.66,182.82l-.68-2.09-.7-.41V182l-1.89-1.09v-6.54l2.76,1.59a4.38,4.38,0,0,1,2.42,3.75c0,1-.31,1.47-.9,1.54l1.12,2.78Zm-1.38-4.14.87.5c.4.24.64.08.64-.42a1.28,1.28,0,0,0-.64-1.13l-.87-.51Z"/><path class="cls-48" d="M459.72,184.28v2l-1.89-1.08v-2l-2.07-5.75,1.87,1.08,1.15,3.18,1.1-1.88,1.87,1.09Z"/><path class="cls-48" d="M420.9,168.34c-.15-.09-.25-.09-.25,0,0,.58,2.11,1.44,2.11,3.13,0,1-.79,1-1.71.5a6.72,6.72,0,0,1-2-1.92l.5-.87a6.06,6.06,0,0,0,1.55,1.62c.2.12.33.12.33,0,0-.6-2.11-1.42-2.11-3.06,0-.93.68-1.12,1.74-.51a6.47,6.47,0,0,1,1.77,1.57l-.49.89A7.22,7.22,0,0,0,420.9,168.34Z"/><path class="cls-48" d="M426.55,170.49v1.17l-2.1-1.21V171l1.91,1.1v1.17l-1.91-1.1v.58l2.16,1.24v1.17l-3.5-2V168.5Z"/><path class="cls-48" d="M429.45,176.83l-.49-1.49-.5-.3v1.21l-1.35-.77v-4.67l2,1.14a3.15,3.15,0,0,1,1.74,2.67c0,.68-.23,1-.65,1.11l.8,2Zm-1-3,.62.36c.29.17.46.06.46-.3a.91.91,0,0,0-.46-.81l-.62-.36Z"/><path class="cls-48" d="M432.41,173.87l.84,3.55.84-2.58,1.37.8-1.55,3.76-1.4-.8L431,173Z"/><path class="cls-48" d="M437.07,176.56v4.66l-1.35-.77v-4.67Z"/><path class="cls-48" d="M439.67,179.3c-.49-.28-.84,0-.84.58a1.88,1.88,0,0,0,.84,1.56.89.89,0,0,0,.92,0l.78,1.4a1.7,1.7,0,0,1-1.77-.09,4.5,4.5,0,0,1-2.16-3.65c0-1.37.93-1.83,2.21-1.1a5.15,5.15,0,0,1,1.72,1.85l-.78.61A2.76,2.76,0,0,0,439.67,179.3Z"/><path class="cls-48" d="M445.08,181.19v1.17l-2.1-1.21v.57l1.91,1.1V184l-1.91-1.1v.58l2.15,1.24v1.17l-3.49-2V179.2Z"/><polygon class="cls-63" points="473.02 214.27 378.84 159.89 378.84 157.16 473.02 211.54 473.02 214.27"/><path class="cls-64" d="M484.56,244.07h-1.41V227.29c-.38.23-.84.53-1.23.81l-.18.09A2.53,2.53,0,0,1,479,228c-.05,0-6.24-3.87-10-6.34l-.35-.23-.28-.3c.18-.44.37-.75,3.31-2l.7,1.23c-.49.2-1.19.5-1.64.71,3.74,2.43,8.95,5.65,9,5.69.55.36.67.36,1.39.11,2.27-1.62,2.66-1.41,3-1.26l.38.2,0,.51Z"/><path class="cls-64" d="M526.64,219.45h-1.41V205.09a3,3,0,0,1,1.54-2.64l.45-.25-6.86-3.87v-1.61l8.32,4.68a.91.91,0,0,1,0,1.59l-1.22.69a1.62,1.62,0,0,0-.82,1.41Z"/><path class="cls-64" d="M484.35,243.78a1.11,1.11,0,0,0-1,0c-.28.16-.27.42,0,.58a1.1,1.1,0,0,0,1,0A.31.31,0,0,0,484.35,243.78Z"/><path class="cls-64" d="M526.43,219.17a1.1,1.1,0,0,0-1,0,.31.31,0,0,0,0,.58,1.1,1.1,0,0,0,1,0C526.71,219.59,526.7,219.33,526.43,219.17Z"/><path class="cls-64" d="M471.59,219.5a1.13,1.13,0,0,0,.51.85c.28.15.5,0,.49-.3a1.06,1.06,0,0,0-.51-.85C471.8,219,471.58,219.18,471.59,219.5Z"/><path class="cls-4" d="M561.44,274.5c-6.1-3.52-16-3.53-22,0a10.28,10.28,0,0,0-3.48,3.1,16.22,16.22,0,0,0-2,1c-6.06,3.49-6,9.18.07,12.7s16,3.54,22,0a10.17,10.17,0,0,0,3.48-3.09,17.78,17.78,0,0,0,2-1C567.57,283.71,567.54,278,561.44,274.5Z"/><path class="cls-65" d="M542.76,218.44a3.79,3.79,0,0,0-2.88,2.36c-.65,2-.77,8-1,9.22a12.49,12.49,0,0,1-.74,2.62c-.09.12-.47.42.5,1.72s2.23,2,2.83,1.34,1.21-5.86,1.3-8.08S542.76,218.44,542.76,218.44Z"/><path class="cls-65" d="M529,245.84a4.24,4.24,0,0,0,.51.73c.08,0,.44.38.69.33s.46-.36.46-.36.45.46.74.44a1.17,1.17,0,0,0,.54-.22,1,1,0,0,0,.6-.13l.15-.15a1.31,1.31,0,0,0,.58-.37c.15-.24-.13-1-.13-1a7.16,7.16,0,0,0,.49-1.33,2.64,2.64,0,0,0,0-.58,1.35,1.35,0,0,1,0-.18s7.12-5.79,7.67-7c.38-.83-.78-1.83-1.61-2.41-.43-.28-.76-.47-.76-.47s-.62-.31-.85-.22a6.9,6.9,0,0,0-2.08,2.44,55.09,55.09,0,0,1-3.83,5c-1.11,1.42-3.15,4.17-3.28,4.44S529,245.84,529,245.84Z"/><path class="cls-66" d="M532.69,242.52l.3.07a1.62,1.62,0,0,1,.58.42s7.12-5.79,7.67-7c.38-.83-.78-1.83-1.61-2.41a27.82,27.82,0,0,1-.51,3.34c-.23,1-4,4.41-4.77,5.07A2.17,2.17,0,0,1,532.69,242.52Z"/><path class="cls-67" d="M533.15,245.1a.32.32,0,0,0-.26-.27,2,2,0,0,0-.37-.05.45.45,0,0,0-.35-.2.43.43,0,0,0-.38.08,1,1,0,0,0-.46,0l-.93.35.54,1.63-.45.06-.27-.82-.14-.28a1.5,1.5,0,0,0-.26.17c-.07.07-.12,0-.12,0a2,2,0,0,1-.22-.63c0-.16.14-.58.14-.58s.44.1.6.11,1.34-.32,1.34-.32l.73-.27.26-.54.08.9.28.19A.35.35,0,0,1,533.15,245.1Z"/><path class="cls-68" d="M544.4,216.76A4.19,4.19,0,0,0,540,220c-.52,2.06-1.46,7.8-1.46,7.8a6,6,0,0,0,3.79,1.65C544.52,229.56,544.4,216.76,544.4,216.76Z"/><path class="cls-69" d="M541.27,282a18.19,18.19,0,0,0-2.25,1.18,37.29,37.29,0,0,0-2.87,2.57c-.15.3-.89.92-.9,1.59a1.53,1.53,0,0,0,1.51,1.29,7.92,7.92,0,0,0,3.77-1.6,17.52,17.52,0,0,1,1.54-1.54c.16,0,.18.05.57.11a3.8,3.8,0,0,0,2.18-1.1,5.8,5.8,0,0,0,.36-2.71C544.93,281.31,541.27,282,541.27,282Z"/><path class="cls-70" d="M541,281.47a18.93,18.93,0,0,0-1.91,2.2c-.16.4.63.79,1.73.84a4.6,4.6,0,0,0,2.47-1.1s1.17-1.68.66-2.55S541,281.47,541,281.47Z"/><path class="cls-71" d="M538.77,254c.2,6.37.07,8.18.22,10.1s1.18,17,1.2,17.76,1.62,1.18,2.63,1.12h0a2.21,2.21,0,0,0,1.95-1.5c0-.51,1.17-13.3.35-17.58-.23-1.25,2.21-9.79,2.21-9.79l.08-.71c.16-1.73.51-6.05.06-7.14-.58-1.38-7.92-.18-7.92-.18S538.57,247.65,538.77,254Z"/><path class="cls-72" d="M542.82,283h0a2.21,2.21,0,0,0,1.95-1.5c0-.51,1.17-13.3.35-17.58-.23-1.25,2.21-9.79,2.21-9.79l.08-.71-3.64-.82a4.76,4.76,0,0,1,0,3.51c-.73,2.32.5,7.07.41,7.76s.79.95.54,6.1C544.51,274.18,544.61,280.56,542.82,283Z"/><path class="cls-69" d="M555.54,277.87s-1.27,1.83-1.43,2.13-1.94,3.26-2,3.65a1.12,1.12,0,0,0,.31,1,2.8,2.8,0,0,0,2.13.47,6.45,6.45,0,0,0,2.54-1.49,10.44,10.44,0,0,0,1.34-2.44,9.63,9.63,0,0,0,1-1.26,5,5,0,0,0,.77-1.55c.05-.59.12-1-.43-1.42S555.54,277.87,555.54,277.87Z"/><path class="cls-70" d="M555.48,277.44a19.65,19.65,0,0,0-.65,2.26c0,.37.9.79,1.75.66s1.17-.92,1.42-1.17,1.24-1.95,1-2.51S555.48,277.44,555.48,277.44Z"/><path class="cls-71" d="M542.74,251a4.72,4.72,0,0,0,.81,2.35l2,2.56s1.23,1.13,3.1,10.4c1.52,3,6.34,11.61,6.34,11.61a2.75,2.75,0,0,0,3,.64,4,4,0,0,0,1.44-1.11,2,2,0,0,0,.49-.92c0-.63-3.14-8.35-3.56-9.47a38.68,38.68,0,0,0-2-3.82s0-4.13.12-5.5c.22-2.52,2.41-8.78,1.66-10-.11-.18-.46-.32-1-.43-3.1-.63-12.09-.11-12.09-.11S542.8,250,542.74,251Z"/><path class="cls-73" d="M559.27,277.53l.28-.08c-2.36-8.08-4.15-10.42-5.22-11.82a4.91,4.91,0,0,1-.76-1.2c-1.35-3.52.38-9.88.74-11.12a10.94,10.94,0,0,0,.44-4.9l-.29.06a10.85,10.85,0,0,1-.44,4.76c-.36,1.25-2.12,7.7-.73,11.3a5,5,0,0,0,.81,1.28C555.16,267.19,556.92,269.5,559.27,277.53Z"/><path class="cls-72" d="M553.7,263.91c1.52,1.6,2.93,5.46,4,8.14.89,2.21,1.63,3.84,1.7,5.44a2,2,0,0,0,.49-.92c0-.63-3.14-8.35-3.56-9.47a38.68,38.68,0,0,0-2-3.82s0-4.13.12-5.5c.22-2.52,2.41-8.78,1.66-10-.11-.18-.46-.32-1-.43,0,0,0,.07,0,.11s.55.26-.29,3.86S552.92,260.79,553.7,263.91Z"/><path class="cls-74" d="M539.12,246.7c.48.63,3.59,2.15,7.39,2.87a22.3,22.3,0,0,0,3.7.38h0c.61,0,1.23,0,1.85-.09a7.64,7.64,0,0,0,3.5-1.32,7.8,7.8,0,0,0,1.24-1,26.35,26.35,0,0,1-.4-13.29c.19-.8.36-1.53.51-2.21,1.18-5.35,1-7.26.34-9.18s-3.81-3.07-5.43-4.39a5.59,5.59,0,0,0-4.45-1.09c-1.14.13-4.29-1.25-6,1.07-.85,1.15-1.74,6.32-1.55,9.19s0,7.29,0,10.13S539.12,246.7,539.12,246.7Z"/><path class="cls-75" d="M545.56,251.06s3.93-.85,4.65-1.11h0c.72-.29,1-1.67,2.5-2.63a5.61,5.61,0,0,0,1.94-1.7,8.35,8.35,0,0,1,.91,2.92,7.8,7.8,0,0,0,1.24-1,26.35,26.35,0,0,1-.4-13.29c.19-.8.36-1.53.51-2.21-1.36-2.52-2.94-4.4-4.65-4.42a43.33,43.33,0,0,0,.58,6.53,13.93,13.93,0,0,1,.17,5.2l-6.52,10.23Z"/><path class="cls-76" d="M544.81,218.83c0,1.16-.06,1.6.16,2a3.71,3.71,0,0,0,2.83.34,7.31,7.31,0,0,0,.88-.36,5.39,5.39,0,0,0,2.33-2,.73.73,0,0,0,0-.73,4.43,4.43,0,0,1-1.08-2.81c0-.16.07-2.61.11-3.46,0-.19,0-.3,0-.3s-.76-1.51-1.47-1.42a9.65,9.65,0,0,0-2.47,2c-.83.82-1.55,1.57-1.55,1.57s.23,3.22.28,4.7C544.81,218.58,544.81,218.71,544.81,218.83Z"/><path class="cls-77" d="M544.52,213.71s.23,3.22.28,4.7a1.28,1.28,0,0,0,.67,0c1.29-.2,2.53-1.5,3.12-1.12a2.72,2.72,0,0,1,.09,3.45,5.39,5.39,0,0,0,2.33-2,.73.73,0,0,0,0-.73,4.43,4.43,0,0,1-1.08-2.81c0-.16.07-2.61.11-3.46a36.53,36.53,0,0,1-3.93.33C545.24,213,544.52,213.71,544.52,213.71Z"/><path class="cls-65" d="M549.28,211.41a23.81,23.81,0,0,1-.52,4.38,6.3,6.3,0,0,1-5.37,2.4,5.76,5.76,0,0,1-1.79-3.79c-.11-1.6,0-2.2,0-2.34a4.4,4.4,0,0,1-.45-1.58c.07-.45.2-3,1.08-4.1s3.3-1.8,5.48-.92S549.28,211.41,549.28,211.41Z"/><path class="cls-78" d="M548.51,212.69s-.21-1.43.69-1.68.56,1.75.56,1.75l.11,2.15,0,.36s.87-1.85,1.17-2.41a4,4,0,0,0,.57-1.42,21.51,21.51,0,0,0,.48-4.24,3.89,3.89,0,0,0-3-2.45,3.58,3.58,0,0,0-2.82-1.14,4.44,4.44,0,0,0-3.27,1.12,3.54,3.54,0,0,0-1.48,2.1,7,7,0,0,0-.11,1.29l.15-.54a3.78,3.78,0,0,0,2.17.21,5.41,5.41,0,0,0,2.55-.8,6.74,6.74,0,0,0-.24,1.59c.06.43.32,1.77.32,1.77s.84.5,1.12.7a1.32,1.32,0,0,1,.42.65l.11,1.14Z"/><path class="cls-79" d="M549,211.93s.48-1.28,1.46-.78-.42,3-1.06,3.09-.51-.62-.51-.62S549.56,212.54,549,211.93Z"/><polygon class="cls-4" points="543.25 295.7 524.99 285.16 517.62 289.41 521.66 291.75 500.47 303.98 513.94 311.75 535.13 299.52 535.88 299.95 543.25 295.7"/><polygon class="cls-69" points="546.75 250.87 541.54 252.51 542.11 254.22 547.31 252.59 546.75 250.87"/><polygon class="cls-69" points="534.35 245.07 529.06 246.65 528.61 244.91 533.78 243.35 534.35 245.07"/><path class="cls-69" d="M533.5,243.71a1.43,1.43,0,0,0,.38,1.23.39.39,0,0,0,.71-.22,1.41,1.41,0,0,0-.38-1.22C533.91,243.22,533.59,243.32,533.5,243.71Z"/><path class="cls-69" d="M546.47,251.23a1.39,1.39,0,0,0,.4,1.22.39.39,0,0,0,.7-.22,1.39,1.39,0,0,0-.4-1.22C546.87,250.74,546.55,250.84,546.47,251.23Z"/><path class="cls-80" d="M528.42,244.4l.47-.14h0a.74.74,0,0,1,.65.24,2.25,2.25,0,0,1,.61,1.94.72.72,0,0,1-.43.57h0l-.46.15-.09-.27-.14-.11a2.24,2.24,0,0,1-.6-1.94.66.66,0,0,1,0-.15Z"/><path class="cls-69" d="M528,245a2.21,2.21,0,0,0,.6,1.94c.48.44,1,.29,1.13-.34a2.25,2.25,0,0,0-.61-1.94C528.62,244.19,528.12,244.35,528,245Z"/><path class="cls-81" d="M528.3,245.28a1.42,1.42,0,0,0,.38,1.22.39.39,0,0,0,.71-.22,1.43,1.43,0,0,0-.39-1.22C528.7,244.78,528.39,244.88,528.3,245.28Z"/><path class="cls-80" d="M541.4,252l.46-.15h0a.72.72,0,0,1,.65.23,2.2,2.2,0,0,1,.63,1.93.7.7,0,0,1-.42.58h0l-.47.15-.09-.27-.14-.1a2.26,2.26,0,0,1-.63-1.93.53.53,0,0,1,0-.15Z"/><path class="cls-69" d="M541,252.57a2.27,2.27,0,0,0,.64,1.94.62.62,0,0,0,1.12-.36,2.27,2.27,0,0,0-.64-1.94A.62.62,0,0,0,541,252.57Z"/><path class="cls-81" d="M541.29,252.86a1.39,1.39,0,0,0,.4,1.22.39.39,0,0,0,.7-.22,1.41,1.41,0,0,0-.4-1.22C541.69,252.37,541.37,252.47,541.29,252.86Z"/><path class="cls-80" d="M525.94,281a7.93,7.93,0,0,1-3.59,6.19c-2,1.14-3.58.22-3.58-2.05a7.89,7.89,0,0,1,3.58-6.18C524.33,277.8,525.94,278.72,525.94,281Z"/><polygon class="cls-80" points="524.76 278.62 526.45 279.59 521.27 288.27 519.63 287.31 521.04 281.42 524.76 278.62"/><path class="cls-69" d="M527.47,281.88a7.89,7.89,0,0,1-3.58,6.18c-2,1.14-3.59.23-3.59-2a7.91,7.91,0,0,1,3.59-6.19C525.87,278.69,527.47,279.6,527.47,281.88Z"/><path class="cls-82" d="M526.14,282.64a5,5,0,0,1-2.25,3.89c-1.25.72-2.26.15-2.26-1.28a5,5,0,0,1,2.26-3.89C525.13,280.64,526.14,281.22,526.14,282.64Z"/><polygon class="cls-83" points="518.44 289.46 524.39 283.61 523.88 283.31 518.44 284.72 518.44 289.46"/><polygon class="cls-84" points="518.94 289.75 524.39 284.87 524.39 283.61 518.94 285.01 518.94 289.75"/><polygon class="cls-81" points="500.92 290.39 514.69 298.33 514.69 299.05 500.92 291.1 500.92 290.39"/><path class="cls-81" d="M519,289.27l3.73-36.48c.25-2.93.91-3.63,2-4.42a9.07,9.07,0,0,1,3.09-1.65l1.21-.38-.3-1-1.21.38a10.21,10.21,0,0,0-3.44,1.83c-1.37,1-2.08,2.07-2.34,5.12l-3.73,36.48Z"/><path class="cls-85" d="M519.69,275.59a.14.14,0,0,1-.06-.13.49.49,0,0,1,.22-.38.14.14,0,0,1,.15,0h0l13.85,8-.29.55-13.88-8h0Z"/><path class="cls-85" d="M521.33,262s-.06-.07-.06-.14a.49.49,0,0,1,.22-.38.17.17,0,0,1,.15,0h0l13.85,8-.29.55-13.88-8Z"/><path class="cls-85" d="M523.62,284.21a.29.29,0,0,1-.1-.24.83.83,0,0,1,.38-.65.28.28,0,0,1,.26,0h0l12.55,7.25-.49.94-12.6-7.27h0Z"/><polygon class="cls-2" points="531.7 297.11 537.15 292.24 537.15 290.97 531.7 292.38 531.7 297.11"/><polygon class="cls-86" points="514.69 298.33 532.21 296.69 518.44 288.74 500.92 290.39 514.69 298.33"/><polygon class="cls-85" points="532.64 292.65 532.21 296.69 518.44 288.74 518.88 284.7 532.64 292.65"/><polygon class="cls-86" points="532.21 297.4 537.65 292.53 537.65 291.26 532.21 292.67 532.21 297.4"/><polygon class="cls-81" points="514.69 298.33 532.21 296.69 532.21 297.4 514.69 299.05 514.69 298.33"/><path class="cls-81" d="M532.72,297.22l3.73-36.48.18-1.28c.29-2.11.36-2.62,1.16-3.4a6.18,6.18,0,0,1,3.09-1.83l1.21-.4-.32-1-1.21.4a6.92,6.92,0,0,0-3.55,2.14c-1,1-1.09,1.71-1.4,3.93l-.19,1.29-3.73,36.51Z"/><ellipse class="cls-80" cx="537.65" cy="291.91" rx="5.05" ry="2.92" transform="translate(14.3 608.75) rotate(-59.69)"/><polygon class="cls-80" points="535.02 296.23 536.64 297.17 538.39 293.41 541.85 288.51 540.12 287.51 535.02 296.23"/><ellipse class="cls-69" cx="539.18" cy="292.8" rx="5.05" ry="2.92" transform="translate(14.29 610.51) rotate(-59.69)"/><path class="cls-81" d="M541.44,291.5a5,5,0,0,1-2.26,3.89c-1.24.72-2.25.14-2.25-1.29a5,5,0,0,1,2.25-3.89C540.43,289.49,541.44,290.07,541.44,291.5Z"/><path class="cls-69" d="M539.73,292.48a1.19,1.19,0,0,1-.55.95c-.3.18-.55,0-.55-.31a1.21,1.21,0,0,1,.55-.95C539.49,292,539.73,292.13,539.73,292.48Z"/><polygon class="cls-41" points="517.38 297.56 505.39 290.64 506.57 277.71 518.56 284.63 517.38 297.56"/><polygon class="cls-42" points="517.38 297.56 530.57 296.3 531.75 283.38 518.56 284.63 517.38 297.56"/><polygon class="cls-87" points="518.56 284.63 531.75 283.38 519.77 276.46 506.57 277.71 518.56 284.63"/><polygon class="cls-43" points="512.55 287.66 510.09 286.24 510.86 280.19 513.32 281.61 512.55 287.66"/><polygon class="cls-44" points="513.32 281.61 526.52 280.35 524.05 278.93 510.86 280.19 513.32 281.61"/><polygon class="cls-88" points="512.18 280.95 525.38 279.69 525.24 279.62 512.04 280.87 512.18 280.95"/><polygon class="cls-87" points="531.75 283.38 518.56 284.63 523.85 284.52 531.75 283.38"/><polygon class="cls-41" points="518.59 284.32 506.6 277.4 507.78 264.48 519.77 271.4 518.59 284.32"/><polygon class="cls-42" points="518.59 284.32 531.78 283.07 532.96 270.14 519.77 271.4 518.59 284.32"/><polygon class="cls-45" points="519.77 271.4 532.96 270.14 520.98 263.23 507.78 264.48 519.77 271.4"/><polygon class="cls-43" points="513.76 274.43 511.3 273.01 512.07 266.95 514.53 268.38 513.76 274.43"/><polygon class="cls-44" points="514.53 268.38 527.73 267.12 525.26 265.7 512.07 266.95 514.53 268.38"/><polygon class="cls-88" points="513.39 267.72 526.59 266.46 526.45 266.38 513.25 267.64 513.39 267.72"/><polygon class="cls-87" points="532.96 270.14 519.77 271.4 525.06 271.29 532.96 270.14"/><path class="cls-65" d="M557.9,239.22a8.25,8.25,0,0,1-2.14,3.89c-1.32,1.58-6.89,5.73-7.3,6.9s-.16,2.53-.37,3a3.86,3.86,0,0,1-.94,1.34.63.63,0,0,1-.18.06,4.63,4.63,0,0,1-.8.16l-.71-.05-1.36.16s-.66,0-.72-.26a2.49,2.49,0,0,1,0-.56,2.72,2.72,0,0,1-.46.33h0a.59.59,0,0,1-.38.11c-.28-.07-.18-.51,0-.87a17.69,17.69,0,0,1,.78-2.24c.2-.21,3.07-2.23,3.79-3.33s6.87-9,6.87-9a5.27,5.27,0,0,0,.16-2.82c-.41-1.12-3.68-12.17.77-14,1.55-.24,2.65.92,3,4A95.21,95.21,0,0,1,557.9,239.22Z"/><path class="cls-89" d="M547,254.4a4.63,4.63,0,0,1-.8.16l-.71-.05-1.36.16s-.66,0-.72-.26a2.49,2.49,0,0,1,0-.56,2.72,2.72,0,0,1-.46.33,6.1,6.1,0,0,0,.39-.48,2.28,2.28,0,0,1,.26-.73c.15-.21.72-.77.72-.77.17,0,.38,1,.38,1l-.14.65-.62-.22a1.57,1.57,0,0,1,0-.48,6.24,6.24,0,0,1,.43-.58l-.63.36s-.17.37-.25.59a3.23,3.23,0,0,0,.07,1,1.1,1.1,0,0,0,.61,0c.45-.05,1.5-.29,1.5-.29l.22.11.73,0Z"/><path class="cls-68" d="M555.14,232.64c-.92.13-2.14.33-2.14.33a24.86,24.86,0,0,1-.73-5c.06-1.79,0-5,2.35-6s3.16,2.56,3.24,3.26.48,6.84.48,6.84S557.17,232.35,555.14,232.64Z"/><path class="cls-90" d="M531.65,246.92s.42-.31.2-.61-.55-.84-.55-.84l0-1s.92-.21,1.09-1-.49-1.6-.91-1.5-1.68,1.85-1.74,2a11.24,11.24,0,0,0,.52,1.77s.48.77.59.9S531.3,247.17,531.65,246.92Z"/><path class="cls-91" d="M541.24,207.82l.24.3s4.35,1.28,4.79,1.39c.19.05.51.18,1,.33a10.34,10.34,0,0,0,2.6.53l2,.17a8.68,8.68,0,0,0,.33-3.64c-.23-1.32-1.71-2.48-3.47-3.05h0a8.29,8.29,0,0,0-1.68-.37,5,5,0,0,0-4.81,1.92A6.49,6.49,0,0,0,541.24,207.82Z"/><path class="cls-92" d="M547.23,209.84a10.34,10.34,0,0,0,2.6.53l2,.17a8.68,8.68,0,0,0,.33-3.64c-.23-1.32-1.71-2.48-3.47-3.05a2.93,2.93,0,0,1,1.75,2.36A3.64,3.64,0,0,1,547.23,209.84Z"/><path class="cls-93" d="M547.29,209.86s-3.46,3-4.66,1.78c-.84-.84-2.92-1.65-3.84-1.38l-.91.27a.22.22,0,0,1-.17-.26,36.45,36.45,0,0,1,3.54-2.45S542.64,206.34,547.29,209.86Z"/><path class="cls-87" d="M519,285.52v-.09l3.32-.34-.31,3.65v.09l-3.32.34Zm3.09-.19-2.88.3-.28,3.29,2.88-.29Z"/><polygon class="cls-87" points="520.05 288.45 520.78 288.38 520.9 286.53 520.17 286.61 520.05 288.45"/><polygon class="cls-87" points="519.48 287.39 521.57 287.16 520.52 285.8 519.48 287.39"/><path class="cls-87" d="M520.24,272.35v-.09l3.32-.34-.31,3.65v.09l-3.32.34Zm3.09-.18-2.88.29-.28,3.29,2.88-.29Z"/><polygon class="cls-87" points="521.32 275.29 522.05 275.21 522.17 273.36 521.44 273.44 521.32 275.29"/><polygon class="cls-87" points="520.74 274.23 522.84 273.99 521.79 272.63 520.74 274.23"/><path class="cls-4" d="M381.68,283.12c-4.43-2.56-10.82-3.29-16.42-2.22l-8-4.6-13.56,7.83,10.45,6c.16,2.23,1.69,4.44,4.64,6.14,6.27,3.62,16.47,3.6,22.78,0S388,286.74,381.68,283.12Z"/><path class="cls-65" d="M355,218.42s.07-.74.63-.52a18.64,18.64,0,0,1,3.28,2.58,9.56,9.56,0,0,0,1.07,2c.51.61,9.63,4.59,9.73,4.95s-2,3.05-3.87,2.15-6.41-4.55-7.2-4.77a4.79,4.79,0,0,1-1.63-.66,8.5,8.5,0,0,1-1.2-1.28,8.11,8.11,0,0,1-1.77-.77.35.35,0,0,1,.3-.54,14.73,14.73,0,0,1,1.79.48l-.77-.69s-1.51-.72-1.53-1a.71.71,0,0,1,.49-.59c.14,0-.27-.19-.25-.57s.59-.54.59-.54Z"/><path class="cls-90" d="M358.7,222.89s-.81.27-1-.72a7,7,0,0,1,.23-2.21,3.26,3.26,0,0,0-.11-.79,1.72,1.72,0,0,1-.32-1.39c.22-.72.63.12.67.21s.43.85.47,1a17.15,17.15,0,0,1,.47,1.74C359.15,221.11,360.3,222.75,358.7,222.89Z"/><polygon class="cls-41" points="348.02 231.54 357.57 226.03 357.57 215.08 348.02 220.59 348.02 231.54"/><polygon class="cls-42" points="348.02 231.54 338.48 226.03 338.48 215.08 348.02 220.59 348.02 231.54"/><polygon class="cls-45" points="348.02 220.59 338.48 215.08 348.02 209.57 357.57 215.08 348.02 220.59"/><polygon class="cls-43" points="352.33 222.44 353.86 221.55 353.86 217.22 352.33 218.11 352.33 222.44"/><polygon class="cls-44" points="352.33 218.11 342.78 212.6 344.32 211.72 353.86 217.22 352.33 218.11"/><polygon class="cls-88" points="353.04 217.7 343.49 212.19 343.58 212.14 353.12 217.65 353.04 217.7"/><polygon class="cls-87" points="338.48 215.08 348.02 220.59 342.88 217.84 338.48 215.08"/><path class="cls-68" d="M377.5,222.43a2.69,2.69,0,0,1,2.67,0,5.49,5.49,0,0,1,2.6,3.4c.14.51.27,7.15.27,7.15s-.76,2-3.88,1.18S377.5,222.43,377.5,222.43Z"/><path class="cls-69" d="M374.65,282.92a7.23,7.23,0,0,0-3.08-1c-1.29,0-1.17,1.59-.94,2.3s2.49,2.54,2.49,2.54l1,1a14,14,0,0,0,1.51,1.44,2.39,2.39,0,0,0,2.1.08c.69-.29.82-.44.86-.5a4.82,4.82,0,0,0,0-2.88C378.14,284.59,374.65,282.92,374.65,282.92Z"/><path class="cls-71" d="M379,273.54c.23,2.72.23,6.24.21,9a39.2,39.2,0,0,1-.17,4.06,2.43,2.43,0,0,1-2.09,1,3.75,3.75,0,0,1-1.31-.32,6.22,6.22,0,0,1-2.15-1.48,8.54,8.54,0,0,1,.12-2.16,27.54,27.54,0,0,0-.13-8c-.66-3.65-2.05-9.27-2.11-11.07a28,28,0,0,1,.19-3.1c.27-3,.74-6.7.74-6.7l8.25-3.25s.28,4.23-1.35,7.11a12.22,12.22,0,0,0-1.32,6.84C377.88,266.52,378.73,270.81,379,273.54Z"/><path class="cls-72" d="M375.59,287.22a6.22,6.22,0,0,1-2.15-1.48,8.54,8.54,0,0,1,.12-2.16,27.54,27.54,0,0,0-.13-8c-.66-3.65-2.05-9.27-2.11-11.07a28,28,0,0,1,.19-3.1,8.75,8.75,0,0,1,3.15-2s-1.6,5.27-1,8.5,1.63,8,1.58,11.17-1.13,6,0,7.63C375.32,286.86,375.46,287,375.59,287.22Z"/><path class="cls-69" d="M360.76,290.62c.29.65.63,1.59,2.88,2.16s2.95.36,3.45.57,1.44.7,1.72.75a6.2,6.2,0,0,0,2.68,0,1.75,1.75,0,0,0,1-.95,1.23,1.23,0,0,0,.06-.22,5.69,5.69,0,0,0-.07-1.93c-.2-.26-4.66-2.69-4.66-2.69s-3.7.18-4.5.17a6.77,6.77,0,0,0-2.26.24,1.94,1.94,0,0,0-.42,1.08A1.56,1.56,0,0,0,360.76,290.62Z"/><path class="cls-70" d="M367.45,288.66a6,6,0,0,0-2,.28,1.45,1.45,0,0,0,.27,2.35c.91.56,3.4.47,3.81.51a2.12,2.12,0,0,0,1.43-.32c.26-.27-1.6-1.58-1.6-1.58Z"/><path class="cls-94" d="M360.76,290.62c.29.65.63,1.59,2.88,2.16s2.95.36,3.45.57,1.44.7,1.72.75a6.2,6.2,0,0,0,2.68,0,1.75,1.75,0,0,0,1-.95.77.77,0,0,0-.33.22c-.62.67-2.63.54-3.3.32a7.12,7.12,0,0,0-2.32-.53,21.52,21.52,0,0,1-2.37-.49,7,7,0,0,1-2.71-1.28,3.3,3.3,0,0,1-.82-1.59A1.56,1.56,0,0,0,360.76,290.62Z"/><path class="cls-71" d="M376.64,258.48c-.85,1.41-3.59,3.44-3.75,4.46a41,41,0,0,0-.9,10,103.76,103.76,0,0,1,.6,10.64c0,4.41.07,7.63.07,7.63a3,3,0,0,1-2.86,1,3.85,3.85,0,0,1-2.39-1.23,2,2,0,0,1-.59-1.11c0-.61-.72-11.53-1.73-16.72s-2.34-15-1.54-18.72a1.22,1.22,0,0,1,.09-.27c1.37-3.19,13.62,1.19,13.62,1.19A5.41,5.41,0,0,1,376.64,258.48Z"/><path class="cls-73" d="M367.88,291.3l-.31,0a67,67,0,0,0-1.16-15.63c-.53-3.37-1.13-7.19-1.59-12.16-.3-3.38-.47-7.91-.47-8h.3s.17,4.56.48,7.93c.45,5,1.05,8.78,1.58,12.15C367.55,281,368.22,285.23,367.88,291.3Z"/><path class="cls-72" d="M367.41,291a2,2,0,0,1-.59-1.11c0-.61-.72-11.53-1.73-16.72s-2.34-15-1.54-18.72a1.22,1.22,0,0,1,.09-.27c.32.2.66.42,1,.67a22.14,22.14,0,0,0-.22,7.53c.56,4.3,2,13,2.18,15.1C366.75,279.25,367.17,287.81,367.41,291Z"/><path class="cls-74" d="M380.65,246.87c.11,1.38.32,4.67-.26,5.61s-1.27,1.15-2.85,2.38a16.06,16.06,0,0,1-9.49,2.46,6.86,6.86,0,0,1-4-1.44,4.26,4.26,0,0,1-1.08-1.25s1.17-5.93,1-8.79c-.11-2.31-.8-9.1-.66-13.18a10.87,10.87,0,0,1,.27-2.42c.78-2.88,3.66-4.49,5.3-5.87s5.39-2.34,6.83-2.49,4,.16,4.43.54,2,1.8,1.84,6-1.34,9.38-1.84,12.31S380.54,245.49,380.65,246.87Z"/><path class="cls-75" d="M365.62,248c-.27,2.69-1.41,3.74-1.56,7.86a4.26,4.26,0,0,1-1.08-1.25s1.17-5.93,1-8.79c-.11-2.31-.8-9.1-.66-13.18l.24-.48,5.25-.77s-3,4.63-3.21,6.11S365.92,245,365.62,248Z"/><path class="cls-65" d="M376.06,215.26a21.31,21.31,0,0,0-.57,4.39,3.84,3.84,0,0,0,.62,1.95c.3.34.56.59.56.59s-.13,1.07-2.87,1.54-4,.48-4.34.57l-.35.1.37-.44s-.39-3-.51-3.4-.78-.07-1.58-.22a1,1,0,0,1-.87-1c0-.29-.39-3.34-.42-3.58a2.89,2.89,0,0,0-.48-.8l.46-.83a1.81,1.81,0,0,1-.45-1c0-.57.12-3,.74-3.76s4.81-1.26,5.95-.92A6.4,6.4,0,0,1,376.06,215.26Z"/><path class="cls-78" d="M366.42,210.55a1,1,0,0,1,.16.49c0,.34-.32.68-.31,1.19s.14,1.53.14,1.53a.67.67,0,0,1,.63.46,10.68,10.68,0,0,1,.33,1.2l0,.49.47.14s.12-1.19.95-.93a3.09,3.09,0,0,1,2,1.68c.47,1,.6,1.67,1.08,2a4.61,4.61,0,0,0,2.59.13,3.23,3.23,0,0,0,1-.51,16.33,16.33,0,0,0,1.9-4.09c1-2.9.38-4.59,0-5.15a4.28,4.28,0,0,0-1.55-1s.06-1.27-2.91-1.87-6.42,1.93-6.81,2.35a3.26,3.26,0,0,0-.45,1.55Z"/><path class="cls-93" d="M367.63,212.68a49.17,49.17,0,0,1-4.95-1.27c-.65-.3-.75-.53-.59-1.49a4.52,4.52,0,0,1,1.07-2.16,3.09,3.09,0,0,1,1.75-.79c.87,0,4.69.47,5.84.67S367.63,212.68,367.63,212.68Z"/><path class="cls-91" d="M377.75,213.14s-.83,1.51-4.32,1.43-7.51-2.7-7.62-3.54a3.43,3.43,0,0,1,2-4.07,8.85,8.85,0,0,1,6.91-.57C376.77,207.15,378.88,209.38,377.75,213.14Z"/><path class="cls-95" d="M368.19,215.72a.87.87,0,0,1,.1-.82c.29-.38,1.12.2,1.25,1.28s-.07,1.84-.5,2.09-.64-.45-.64-.45A2.39,2.39,0,0,0,368.19,215.72Z"/><path class="cls-65" d="M365.52,227a21.83,21.83,0,0,0-3.56,2c-4.53,2.81-5.6,3.75-6.83,4.13s-1.74,1.94-1.64,3.08,0,1.77,2.66,1.24,9.63-4,11.71-5.45C370.4,230.21,368.42,225.72,365.52,227Z"/><path class="cls-65" d="M342.1,223.17s-.48-.68-.36-.76.42-.63.92,0a22.83,22.83,0,0,0,2.18,2.21c.08,0,.45-.47.45-.47s-.94-1.13-.81-1.8,1.08-.19,1.16,0,.62,1.29.9,1.71a7.62,7.62,0,0,1,1.06,1.78c.18.62.19,1.7.55,2.13s7.94,5.49,7.94,5.49,0,5.6-2.12,3.87-7.88-7.95-8.18-8.12-2.72-1.05-2.91-1.2a7.35,7.35,0,0,1-.59-1.49l-.4-1.09s-.34-.49-.32-.67a4.51,4.51,0,0,0,0-.62s-.34-.65,0-.79A2.4,2.4,0,0,1,342.1,223.17Z"/><polygon class="cls-89" points="342.1 223.17 343.89 225.41 342.62 224.29 341.84 223.24 342.1 223.17"/><polygon class="cls-89" points="341.58 224.13 342.85 225.82 342.21 225.27 341.58 224.41 341.58 224.13"/><path class="cls-68" d="M358.82,230.81a4.05,4.05,0,0,0,.8,3.1,10.77,10.77,0,0,0,2.18,2.23s6.38-3.19,7-4.73c.55-1.31,1.4-3.77-2-4.84C365.17,226,358.82,230.81,358.82,230.81Z"/><path class="cls-4" d="M310.42,256.68c5-2.88,13.06-2.89,18,0s4.93,7.52-.06,10.4-13.06,2.9-18,0S305.43,259.57,310.42,256.68Z"/><path class="cls-96" d="M326.42,262.91c-2.47-1.71-3.62-1.58-3.62-1.58s-3.08.21-2.75-1.64c.27-1.57.68-2.54.78-3.22a1.77,1.77,0,0,0,0-.32c-.08-4-1.79-10.53-1.26-13.66a22.92,22.92,0,0,0-.35-7.35,1,1,0,0,1,0-.17c-.12-.69-.23-1.36-.34-2a1.08,1.08,0,0,0,0-.19c-.06-.42-.13-.83-.18-1.22,0-.21,0-.41-.07-.6,0-.4-.09-.78-.1-1.13a11.12,11.12,0,0,1,0-1.65,4.34,4.34,0,0,1,.17-.9c1-3.48,7.5-4.44,7.5-4.44a50,50,0,0,1-.42,12.19,156.41,156.41,0,0,0-2.16,22.16c0,1.16,1.52,2.12,2.23,2.53,1,.58,3,1.88,3,1.88S328.89,264.62,326.42,262.91Z"/><path class="cls-72" d="M320.52,230.84a76.73,76.73,0,0,1,.25,9.32c-.2,4.44-.47,4.09-.15,7.25s.93,7.68.76,8.7-1.17,3.09-1.13,4.43a1.18,1.18,0,0,1-.15-.84c.25-1.57.64-2.54.73-3.23a1.77,1.77,0,0,0,0-.32c-.08-4-1.79-10.53-1.26-13.66a22.92,22.92,0,0,0-.35-7.35,1,1,0,0,1,0-.17c-.12-.69-.23-1.36-.34-2a1.08,1.08,0,0,0,0-.19c-.06-.42-.13-.83-.18-1.22,0-.21,0-.41-.07-.6,0-.4-.09-.78-.1-1.13a11.12,11.12,0,0,1,0-1.65,8.87,8.87,0,0,1,3.71-.52,3.11,3.11,0,0,1-.8,2.24C320.68,230.91,320.52,230.84,320.52,230.84Z"/><path class="cls-69" d="M324.4,258.53c.58-.17,1.15.65,1.55,1a33,33,0,0,1,3.22,2.07,2.38,2.38,0,0,1,.13,1.11,2.55,2.55,0,0,1-2.75.62c-1.57-.57-2.13-1.1-3.17-1.36s-3.1-.68-3.37-1.25a7.39,7.39,0,0,1,0-2.46s.33-.13.46.1a3.07,3.07,0,0,0,1.44,1.13,3.47,3.47,0,0,0,1.57.06c0-.15-.09-.29,0-.42a1.06,1.06,0,0,1,.29-.22c.14-.09.26-.21.4-.31A.71.71,0,0,1,324.4,258.53Z"/><path class="cls-96" d="M321.73,229a4,4,0,0,1-1.5,1.11s-.63,12-1.71,14.65-2,12.35-2,12.76a7,7,0,0,0,2,4.64c1.88,1.84,2.7,2.2,2.68,2.48a2.32,2.32,0,0,1-2.64,1.4c-1.77-.3-2.27-.42-3.13-1.33s-1.77-1.52-1.9-2.24.48-2.11.11-3.45c0,0,0,0,0,0s0-.16-.06-.26a.28.28,0,0,0,0-.09c0-.08,0-.2-.07-.31-.05-.3-.09-.66-.16-1.08a67.36,67.36,0,0,1-.67-10.15c.55-4.89,1.1-4.4.94-5.79S311.19,233,311.33,225a1.15,1.15,0,0,1,.13-.53c1.16-2.28,10.6,0,10.6,0S322.59,227.93,321.73,229Z"/><path class="cls-97" d="M314.47,260.57c-2.26-10.54-.73-15.66-.16-17.59.07-.26.14-.47.16-.59.13-.73-.86-4.8-1.51-7.5-.3-1.2-.55-2.24-.65-2.74a52.34,52.34,0,0,1-.12-7h.31a51.45,51.45,0,0,0,.12,6.93c.09.5.34,1.53.63,2.73.91,3.74,1.65,6.89,1.52,7.62a4.1,4.1,0,0,1-.17.63c-.56,1.91-2.07,7,.17,17.44Z"/><path class="cls-72" d="M314.62,263.91a2.82,2.82,0,0,1-1-1.3c-.14-.72.44-2.12.05-3.46l0-.11s0,0,0,0,0-.16-.06-.26a.28.28,0,0,0,0-.09c0-.1,0-.2-.07-.31-.05-.3-.09-.66-.16-1.08a67.36,67.36,0,0,1-.67-10.15c.55-4.89,1.1-4.4.94-5.79S311.19,233,311.33,225a1.15,1.15,0,0,1,.13-.53c.36.09.63.18.63.18a29.11,29.11,0,0,0,0,6.67c.43,3.78,2.15,10,2.15,10.77s-1.18,3-1.14,7.14,1.25,10,1.18,10.83A4.56,4.56,0,0,0,314.62,263.91Z"/><path class="cls-69" d="M318.3,261.54a2,2,0,0,0-1,0,5.33,5.33,0,0,0-1.1.39c-.35.16-.36.3-.34.63-.45-.23-1.72-.86-1.92-1.34a6.46,6.46,0,0,1-.2-1.31,2.83,2.83,0,0,0-.13.73c-.05.58-.18,2-.16,2.44s2.09,2.08,2.67,2.48a5.76,5.76,0,0,0,4.05,1.5c2.08.06,2-1.36,1.94-1.69a13.72,13.72,0,0,0-2.64-2.51,4.25,4.25,0,0,1-.8-1A.91.91,0,0,0,318.3,261.54Z"/><path class="cls-65" d="M322.24,196.55s1.37-.24,3.07,2.53a29.54,29.54,0,0,0,4.34,5.92c1.73,1.72,2.22,2,2.29,3.1s-.28,3.2-2.55,2.35-4.94-5.46-5.93-7.41S313.44,196.49,322.24,196.55Z"/><path class="cls-98" d="M329.54,204.88a10.2,10.2,0,0,0-3,1.25c-1.23.85-6.22-9.65-5.54-9.8a3.61,3.61,0,0,1,3,.89C324.83,197.89,329.54,204.88,329.54,204.88Z"/><path class="cls-99" d="M315.78,184.86a2.15,2.15,0,0,0-3.34-1.61c-1.61.8-3.36,3.58-1.31,8a8.64,8.64,0,0,1-.37,8.14s2.93-.47,4-1.45.72-1.84.58-4.89A67.33,67.33,0,0,1,315.78,184.86Z"/><path class="cls-100" d="M326.83,207.91a3.51,3.51,0,0,1-.32,1.66h0l-.15.32c-.17.36-.38.78-.6,1.33-.62,1.6.67,11.32.48,12s-.45,1.34-3.46,2.25c-3.35,1-8.09.93-10.47,0a5.28,5.28,0,0,1-1-.5s.65-6.85.49-9.41a20.42,20.42,0,0,0-1.65-5.33c0-.09-.07-.19-.11-.27a27.79,27.79,0,0,1-1.29-3.74c-1.28-5.3.75-5.92,2.36-7.15a11.18,11.18,0,0,1,4.38-2,27.61,27.61,0,0,1,5.69-.94c.72.08,2.8,1.12,3.67,4.27.76,2.73,1.59,5,1.86,6.61a6.39,6.39,0,0,1,.09.68A1.09,1.09,0,0,1,326.83,207.91Z"/><path class="cls-101" d="M326.83,207.91a3.51,3.51,0,0,1-.32,1.66h0l-.15.32-1.82.45a8.77,8.77,0,0,1-3-.51L323,209a11.41,11.41,0,0,1-2.93-1,1.79,1.79,0,0,1-.41-1.51c1.34-1.48,5-.27,7.12.56a6.39,6.39,0,0,1,.09.68A1.09,1.09,0,0,1,326.83,207.91Z"/><path class="cls-102" d="M326.24,223.25c-.2.69-.45,1.34-3.46,2.25-3.35,1-8.09.93-10.47,0a4.75,4.75,0,0,1-1-.51s.65-6.85.49-9.41a20.42,20.42,0,0,0-1.65-5.33c.48-2.53,1.23-4.41,2.3-4.53,3.24-.34.08,6.6,4.52,6.79,4.1.19,3.91-1.39,5.86-1.67,2.18-.3,3.22-.48,3.66-1.26-.2.45-.46.93-.75,1.65C325.14,212.83,326.43,222.55,326.24,223.25Z"/><path class="cls-101" d="M321.2,222.27,313.56,218s-1,.36-1.15,2.81c-.08,1.64.08,3.31-.1,4.67a4.75,4.75,0,0,1-1-.51s.65-6.85.49-9.41a21.14,21.14,0,0,0-1.76-5.6c1.95-2.09,3.74-3.78,3.74-3.78a41.12,41.12,0,0,0,.94,4.44c.71,2.32,4.87,1.73,6.51.89-1.38,1-4.87,1.33-6.2.63a21.12,21.12,0,0,1,.16,3.94Z"/><path class="cls-65" d="M309.65,200.85s2.66-.88,3.73,3.51a35.54,35.54,0,0,1,1.18,11.56,30.19,30.19,0,0,0,8.13,6.5,4.61,4.61,0,0,1,1.67.48c.15.23,2.38,1.61,2.5,1.91a10,10,0,0,0,2.06,1.21l.22.42s.4.15.4.51-.38.38-.38.38.13.57-.31.6a8.45,8.45,0,0,1-2.1-.65c-.06,0-.1,0-.1,0s.6.35.69.59.07.78-.5.54a20.24,20.24,0,0,1-2.43-1.41c-.4-.3-1.69-1.6-1.83-1.71a4.69,4.69,0,0,0-1.5-1.53,15.86,15.86,0,0,0-1.71-.79c-2.79-1.13-7.45-4.07-7.73-5.46-.61-3-3.74-12.83-3.33-15.2A2,2,0,0,1,309.65,200.85Z"/><path class="cls-89" d="M312,217.8c.27.45.78,1,2.88,2.55a46,46,0,0,0,6.27,3.27c.16.11.89.86.89.86l.55,0,.79-.44-.08.27-.31.42a1.68,1.68,0,0,0,.22.75c.2.29,1.07,1.22,1.25,1.43a20.38,20.38,0,0,0,2.42,1.45.59.59,0,0,0,.45-.06c-.06.14-.21.22-.5.1a20.24,20.24,0,0,1-2.43-1.41c-.4-.3-1.69-1.6-1.83-1.71a4.69,4.69,0,0,0-1.5-1.53,15.86,15.86,0,0,0-1.71-.79c-2.48-1-6.44-3.44-7.49-4.95C311.92,217.83,312,217.73,312,217.8Z"/><path class="cls-89" d="M326.65,227.31l.15.09-.19-.09-1.26-1.19-.09-.2,1.38,1.22a9.29,9.29,0,0,0,2,.65c.43,0,.51,0,.5-.25a.71.71,0,0,0-.22-.44c-.08-.12-1.14-.27-1.38-.39s-1.25-.78-1.25-.78.72.41,1.34.69a5.29,5.29,0,0,0,1.28.32c.11,0,.25.28.25.28l.21,0a.45.45,0,0,0,.1-.33.35.35,0,0,0-.21-.25l-1.54-.53-.94-.62.95.5s1.24.43,1.47.49a.57.57,0,0,1,.36.49c0,.35-.38.38-.38.38s.13.57-.31.6a8.45,8.45,0,0,1-2.1-.65C326.69,227.24,326.65,227.31,326.65,227.31Z"/><path class="cls-89" d="M315,216.49c-.78-.48,0,.17-.71.19s-1.86-.07-1.86-.07l.64-.19c1.37-.26,1.45-.5,1.45-.5l.49.57Z"/><path class="cls-65" d="M321.33,226.12a2.85,2.85,0,0,0,.11-.86,5.23,5.23,0,0,1-.24-1.23,1.48,1.48,0,0,1,.87-1.41c.62-.2,1.08-.34,1.49.54s-1,1.18-1,1.44a9.29,9.29,0,0,1-.07,1.19C322.34,226.22,321.5,226.89,321.33,226.12Z"/><path class="cls-65" d="M320.18,207.07h0a1.31,1.31,0,0,0,0,.63,7.68,7.68,0,0,0,1.91.6l2.09.54s-1.64.23-2,.21-1.09,0-.87.5,2.75.19,3.45.19,1-.3,1.88-.3,3,1.77,3.94,1.34a2.76,2.76,0,0,0,1.12-3.42c-.7-1.22-2.37-.68-3.15-.68a6.21,6.21,0,0,1-2-.37,1.55,1.55,0,0,1-.78-.81,6.66,6.66,0,0,0-.83-.8c-.26-.23-1.49-1.26-1.6-1.39s-.31-.47-.39-.57-.25-.34-.46-.11a0,0,0,0,0,0,0c-.18.22-.05.42.06.8a3.58,3.58,0,0,0,.88,1.06l.76.76s-.09.16-.48.27l-.11,0h0a7.56,7.56,0,0,1-.85,0h0c-1-.09-2.45-.28-2.77-.23s-.19.43-.16.63a.24.24,0,0,1,0,.12s0,0,0,0c-.2,0-.38.25-.4.62a.25.25,0,0,0,.11.22A1.09,1.09,0,0,0,320.18,207.07Z"/><path class="cls-76" d="M319.72,192.71a46.14,46.14,0,0,0,.16,4.75c.2,1.3.62,2.06-.83,2.54-.84.27-4-.59-5.28-2.05-.11-.18.24-.41.53-1.43a9.08,9.08,0,0,0,.5-3.5c0-2,.09-3.85.09-3.85Z"/><path class="cls-103" d="M319.91,197.57a2.77,2.77,0,0,1-1-.12c-2-.5-2.53-.6-3.13,0s-.39,1.25.29,2a6.26,6.26,0,0,1-2.3-1.48c-.11-.17.24-.4.53-1.42a9.27,9.27,0,0,0,.5-3.51v-1l5,4.57a7.76,7.76,0,0,0,.08.84A.2.2,0,0,0,319.91,197.57Z"/><path class="cls-65" d="M317.71,183.15s3.3.7,4.16,3.23.73,2.64.67,3.65a17.11,17.11,0,0,1-.12,4.08c-.39,1.65-.77,3-1.52,3.3s-5-.61-6.58-3.53-3-5.59-1.84-8.3A5,5,0,0,1,317.71,183.15Z"/><path class="cls-104" d="M312.23,185.75c.63-1.65,1.43-2,1.43-2a4.13,4.13,0,0,1,3-.85,6.87,6.87,0,0,1,4.74,2c1.18,1.29.69,2,.69,2v0a.47.47,0,0,0-.63-.26c-.56.23-.79.66-1.25.82-3.21,1.14-3.85.28-4.12,1.76s-.41,2-1.08,1.8c-1.08-.38-1-.14-1.56.58a17.53,17.53,0,0,0,.73,2.11s0,.68-1.27-2A6.76,6.76,0,0,1,312.23,185.75Z"/><path class="cls-105" d="M314.55,191.38a1.31,1.31,0,0,0-1.53-.7c-1.06.29-.86,1.5.28,2.59s1.42-.2,1.47-.28S314.27,192.13,314.55,191.38Z"/><path class="cls-106" d="M314.16,191.52s-.46-.55-.92-.31c-.7.37.31,1.52.41,1.67a.45.45,0,0,0,.67-.27C314.38,192.26,313.81,192,314.16,191.52Z"/><path class="cls-104" d="M315.87,190.1a7,7,0,0,0-.16,2.2,5.54,5.54,0,0,1-.24,2.13,6.78,6.78,0,0,0,0-2.09c-.21-.76-.61-1.17-.55-1.59S315.87,190.1,315.87,190.1Z"/><path class="cls-89" d="M323.82,205.54l-.11,0,.49,0,.78-.31-.93-.42s-1.1-1.14-1.2-1.33a5,5,0,0,1-.25-.87c-.18.22-.05.42.06.8a3.58,3.58,0,0,0,.88,1.06l.76.76S324.21,205.43,323.82,205.54Z"/><path class="cls-89" d="M321.18,206.27c.65.1,2.57.22,2.57.22l-3.83-.57a.24.24,0,0,1,0,.12Z"/><path class="cls-89" d="M319.59,206.9a1.09,1.09,0,0,0,.59.17h0c.17,0,.94.16,1.57.22l1.8.2c-.29-.05-3.38-.54-3.69-.54A.87.87,0,0,1,319.59,206.9Z"/><path class="cls-98" d="M309.14,200.73a3,3,0,0,0-1.05,2,48.79,48.79,0,0,0,1.55,7.55c1.85.22,4.71-.63,4.78-1.19a28.35,28.35,0,0,0-1.35-6.13C312.4,201.27,311.17,199.88,309.14,200.73Z"/><path class="cls-2" d="M71.51,260.5v4.55h2.6v.66H70.77V260.5Z"/><path class="cls-2" d="M76.33,262a1.69,1.69,0,0,1,1.76,1.82v.33H75.23a1.16,1.16,0,0,0,2.21.43l.59.33a1.75,1.75,0,0,1-1.65,1,1.85,1.85,0,0,1-1.88-2A1.81,1.81,0,0,1,76.33,262Zm1,1.59a1,1,0,0,0-1-1,1,1,0,0,0-1.1,1Z"/><path class="cls-2" d="M80.43,262A1.42,1.42,0,0,1,82,263.4v2.31h-.68v-.57h-.11a1.34,1.34,0,0,1-1.3.68c-.82,0-1.37-.44-1.37-1.11s.51-1,1.22-1.08l1.54-.15v-.13a.81.81,0,0,0-.92-.82,1.23,1.23,0,0,0-1.16.81l-.58-.34A2,2,0,0,1,80.43,262Zm-.36,3.28a1.12,1.12,0,0,0,1.25-1.13V264l-1.36.15c-.43,0-.68.21-.68.52S79.59,265.23,80.07,265.23Z"/><path class="cls-2" d="M83.66,262.55h.11c.14-.37.43-.51.91-.51h.43v.62h-.57a.78.78,0,0,0-.86.86v2.19H83v-3.65h.68Z"/><path class="cls-2" d="M86.4,262.06v.63h.11a1.25,1.25,0,0,1,1.24-.7,1.4,1.4,0,0,1,1.44,1.52v2.2h-.7v-2.14a.87.87,0,0,0-1-1c-.67,0-1.1.43-1.1,1.24v1.86h-.7v-3.65Z"/><path class="cls-2" d="M93,262.06v.52h.11a1.14,1.14,0,0,1,2,.06h.11a1.1,1.1,0,0,1,1.09-.65,1.19,1.19,0,0,1,1.24,1.24v2.48h-.7v-2.42a.67.67,0,0,0-.75-.68.79.79,0,0,0-.83.87v2.23h-.7v-2.42a.67.67,0,0,0-.75-.68.79.79,0,0,0-.83.87v2.23h-.7v-3.65Z"/><path class="cls-2" d="M100.22,262a1.94,1.94,0,1,1-1.89,1.94A1.85,1.85,0,0,1,100.22,262Zm0,3.24a1.31,1.31,0,1,0-1.19-1.3A1.19,1.19,0,0,0,100.22,265.19Z"/><path class="cls-2" d="M103.56,262.55h.1c.15-.37.43-.51.92-.51H105v.62h-.57a.78.78,0,0,0-.86.86v2.19h-.7v-3.65h.69Z"/><path class="cls-2" d="M107.06,262a1.69,1.69,0,0,1,1.76,1.82v.33H106a1.1,1.1,0,0,0,1.14,1.11,1.08,1.08,0,0,0,1.07-.68l.59.33a1.75,1.75,0,0,1-1.65,1,1.85,1.85,0,0,1-1.88-2A1.81,1.81,0,0,1,107.06,262Zm1,1.59a1,1,0,0,0-1-1,1,1,0,0,0-1.1,1Z"/></g></g></g></svg>