<svg width="1440" height="1024" viewBox="0 0 1440 1024" fill="none" xmlns="http://www.w3.org/2000/svg">
<g clip-path="url(#clip0_316_48)">
<rect width="1440" height="1024" fill="#F5F5F7"/>
<path d="M1123.53 1091.55L1388.45 1360.61L1389.33 1167.74C1389.92 1038.51 1495.16 934.223 1624.4 934.811L1841.36 935.8L1569.28 656.907C1557.5 644.825 1541.36 637.978 1524.48 637.901L1174.29 636.305C1137.29 636.137 1107.16 665.997 1106.99 702.999L1105.42 1047.07C1105.35 1063.7 1111.86 1079.7 1123.53 1091.55Z" fill="url(#paint0_linear_316_48)" fill-opacity="0.6"/>
<path d="M-112.75 271.338L91.1337 478.405L92.3176 218.558C92.5063 177.137 126.238 143.712 167.658 143.901L446.408 145.171L236.953 -69.5291C225.166 -81.6111 209.024 -88.458 192.145 -88.5349L104.583 -88.9339C-24.6505 -89.5227 -129.892 14.7644 -130.481 143.998L-130.858 226.85C-130.934 243.489 -124.425 259.482 -112.75 271.338Z" fill="url(#paint1_linear_316_48)" fill-opacity="0.8"/>
</g>
<defs>
<linearGradient id="paint0_linear_316_48" x1="438.06" y1="-45.579" x2="1597.15" y2="1124.37" gradientUnits="userSpaceOnUse">
<stop offset="0.530271" stop-color="white"/>
<stop offset="0.569196" stop-color="#FE941C"/>
<stop offset="0.77993" stop-color="#FFAF34" stop-opacity="0.6"/>
</linearGradient>
<linearGradient id="paint1_linear_316_48" x1="-654.38" y1="-624.648" x2="254.84" y2="293.092" gradientUnits="userSpaceOnUse">
<stop offset="0.530271" stop-color="white"/>
<stop offset="0.569196" stop-color="#FE941C"/>
<stop offset="0.77993" stop-color="#FFAF34" stop-opacity="0.6"/>
</linearGradient>
<clipPath id="clip0_316_48">
<rect width="1440" height="1024" fill="white"/>
</clipPath>
</defs>
</svg>
